<?xml version="1.0" encoding="utf-8"?>
<!-- Generator: Adobe Illustrator 16.0.3, SVG Export Plug-In . SVG Version: 6.00 Build 0)  -->
<!DOCTYPE svg PUBLIC "-//W3C//DTD SVG 1.1//EN" "http://www.w3.org/Graphics/SVG/1.1/DTD/svg11.dtd">
<svg version="1.1" id="Vrstva_1" xmlns="http://www.w3.org/2000/svg" xmlns:xlink="http://www.w3.org/1999/xlink" x="0px" y="0px"
	 width="339.849px" height="42.133px" viewBox="0 0 339.849 42.133" enable-background="new 0 0 339.849 42.133"
	 xml:space="preserve">
<polygon points="2.397,42.133 0,39.49 13.095,1.516 337.452,0 339.849,2.644 328.071,40.607 "/>
<g>
	<defs>
		
			<rect id="SVGID_1_" x="-251.021" y="-276.571" transform="matrix(-1 0.0087 -0.0087 -1 340.0251 40.6495)" width="841.89" height="595.275"/>
	</defs>
	<clipPath id="SVGID_2_">
		<use xlink:href="#SVGID_1_"  overflow="visible"/>
	</clipPath>
	<path clip-path="url(#SVGID_2_)" fill="#FFFFFF" d="M320.312,12.755l-3.014-1.602l-0.277,0.143l-2.111,8.575l-1.328-5.475
		l-2.203,0.507l0.516-2.074l-3.014-1.602l-0.277,0.143l-3.773,15.404l3.014,1.602l0.279-0.143l2.762-11.255l2.363,9.722l3.014,1.602
		l0.279-0.142L320.312,12.755z M298.396,26.017c-2.16,0.111-4.383-1.357-4.418-5.335c-0.025-3.024,1.297-5.896,2.477-6.906
		c1.936-0.621,4.734,0.563,2.986,4.975l0.188,0.185l1.156-0.522C301.302,20.758,300.292,24.605,298.396,26.017 M304.017,15.756
		l-0.508,0.213c0.568-2.889-1.119-4.849-4.041-4.824c-4.432,0.039-9.205,4.661-9.148,11.057c0.031,3.49,2.102,6.469,5.406,6.44
		c5.807-0.051,9.398-8.407,8.523-12.726L304.017,15.756z M286.069,28.425l3.75-15.357l-3.107-1.648l-0.277,0.143l-3.75,15.357
		l3.107,1.646L286.069,28.425z M284.208,14.813l0.137-0.21l-1.352-3.009l-10.598,0.44l-0.162,0.235l1.328,2.986l2.672-0.116
		l-2.896,11.864l3.109,1.646l0.277-0.142l3.299-13.519L284.208,14.813z M270.315,22.843l-3.607,1.613l-0.451,1.818
		c-1.789,0.062-4.52-0.846-4.555-5.007c-0.025-2.814,1.063-6.103,2.285-7.276c2.184-0.299,5.402,1.139,2.875,6.998l0.188,0.184
		l3.354-1.495c1.73-3.945,0.785-8.286-3.648-8.247c-4.559,0.04-8.791,4.984-8.736,11.077c0.031,3.604,2.076,6.446,5.377,6.417
		c2.838-0.025,5.631-2.234,7.105-5.897L270.315,22.843z M257.751,13.348l-3.107-1.647l-0.277,0.143l-3.57,14.59
		c-0.141,0.023-0.303,0.049-0.465,0.051c-2.023,0.018-3.57-1.598-2.9-4.371l2.088-8.694l-3.105-1.647l-0.275,0.143l-2.328,9.695
		c-1.01,4.171,1.107,7.477,4.637,7.446c1.348-0.012,2.438-0.533,3.314-1.261l1.963,1.052l0.277-0.143L257.751,13.348z
		 M234.771,15.895c1.178-1.196,3.965-1.452,5.23-0.417c0.723,2.851-1.041,8.584-7.543,9.85L234.771,15.895z M237.015,11.69
		c-1.141,0.01-2.439,0.393-3.365,0.959l-1.424-0.754l-0.279,0.143l-3.301,13.533l-0.721-0.065l-0.162,0.262l2.449,3.354
		c6.746,0.174,12.189-4.717,12.137-10.875C242.317,14.69,240.548,11.659,237.015,11.69 M221.534,26.688
		c-2.16,0.111-4.383-1.357-4.418-5.335c-0.025-3.024,1.299-5.896,2.477-6.907c1.936-0.621,4.736,0.564,2.986,4.975l0.188,0.184
		l1.156-0.522C224.44,21.429,223.429,25.275,221.534,26.688 M227.155,16.427l-0.508,0.213c0.568-2.889-1.119-4.849-4.041-4.824
		c-4.43,0.039-9.205,4.66-9.148,11.056c0.031,3.49,2.102,6.471,5.408,6.441c5.805-0.051,9.396-8.408,8.521-12.727L227.155,16.427z
		 M210.503,15.48c-0.094,2.56-2.057,4.251-5.756,4.051l0.877-3.613C208.308,14.476,210.503,15.48,210.503,15.48 M212.604,16.764
		c-0.021-2.511-1.83-4.845-5.227-4.815c-1.186,0.01-2.322,0.37-3.225,0.796l-1.123-0.594l-0.277,0.143c0,0-2.021,8.18-3.75,15.357
		l3.107,1.646l0.277-0.142l1.482-6.06c0.303,0.043,0.582,0.04,0.861,0.061l3.66,6.18l2.986-1.469l0.066-0.303l-3.02-5.066
		C211.204,21.381,212.624,18.975,212.604,16.764 M192.489,15.94c2.777-1.536,4.928-0.252,4.928-0.252
		c-0.117,2.604-2.025,4.924-6.027,4.795L192.489,15.94z M194.294,12.062c-1.211,0.011-2.371,0.37-3.273,0.82l-1.145-0.616
		l-0.277,0.143c0,0-2.021,8.179-3.75,15.357l3.107,1.646l0.277-0.143l1.797-7.294l1.389,1.894
		C201.683,23.65,201.21,12.001,194.294,12.062 M171.321,18.52l-1.646-2.264l0.091-0.257l8.241-4.281l1.646,2.265l-0.09,0.257
		l-4.676,2.436l3.303,0.228l1.648,2.265l-0.09,0.255l-5.256,2.745l3.561,0.248l1.365,1.871l-0.09,0.257l-10.834,5.63l-1.671-2.29
		l0.091-0.255l6.434-3.358l-3.746-0.246l-1.271-1.802l0.091-0.257l6.156-3.217L171.321,18.52z M148.954,16.411l6.693-0.291
		l0.138-0.21l-1.351-3.01l-7.021,0.293l-1.051-0.549l-0.277,0.143l-3.75,15.358l3.107,1.646l7.461-0.319l0.139-0.212l-1.352-3.01
		l-5.185,0.231l0.876-3.617l5.416-0.234l0.138-0.21l-1.257-2.807l-3.557,0.146L148.954,16.411z M142.708,14.305l-3.015-1.602
		l-0.277,0.143l-2.111,8.575l-1.327-5.475l-2.204,0.507l0.517-2.074l-3.014-1.602l-0.277,0.143l-3.772,15.403l3.013,1.603
		l0.278-0.142l2.763-11.255l2.363,9.722l3.014,1.602l0.278-0.143L142.708,14.305z M123.536,29.843l3.748-15.357l-3.106-1.648
		l-0.276,0.143l-3.75,15.357l3.106,1.646L123.536,29.843z M120.524,14.545l-3.107-1.648l-0.278,0.143l-1.773,7.25l-4.021,0.175
		l1.438-5.853l-3.107-1.647l-0.277,0.142l-1.842,7.505l-1.627,0.06l-0.161,0.231l1.115,2.501l-1.235,5.059l3.107,1.647l0.277-0.142
		l1.528-6.215l3.997-0.15l-1.167,4.795l3.107,1.645l0.278-0.143L120.524,14.545z M100.794,20.902l5.299-5.604l-0.049-0.324
		l-2.272-1.958l-6.058,6.611l1.189-4.894l-3.107-1.647l-0.278,0.143l-3.75,15.356l3.108,1.647l0.277-0.142l1.078-4.383l1.867-1.992
		l2.87,6.533l3.314-1.17l0.021-0.254L100.794,20.902z M82.01,22.709l-2.813,0.095l2.877-6.066L82.01,22.709z M85.587,13.57
		l-3.289-0.947l-0.166,0.188l-0.011,1.325l-1.962-0.913l-0.255,0.118l-4.614,9.637l-2.162,0.089l-0.16,0.237l1.043,2.364
		l-1.484,3.106l2.967,1.557l0.208-0.141l1.919-4.043l4.325-0.178l-0.039,3.584l3.291,0.949l0.162-0.188L85.587,13.57z M70.781,16.7
		c-0.094,2.56-2.056,4.252-5.756,4.051l0.875-3.614C68.586,15.695,70.781,16.7,70.781,16.7 M72.882,17.983
		c-0.021-2.511-1.83-4.845-5.225-4.815c-1.186,0.011-2.323,0.37-3.227,0.796L63.31,13.37l-0.279,0.143c0,0-2.021,8.181-3.75,15.357
		l3.108,1.646l0.278-0.142l1.482-6.061c0.303,0.043,0.582,0.041,0.861,0.062l3.659,6.179l2.987-1.469l0.067-0.303l-3.021-5.066
		C71.482,22.601,72.901,20.194,72.882,17.983 M54.225,22.953l-2.814,0.094l2.878-6.066L54.225,22.953z M57.8,13.813l-3.288-0.948
		l-0.166,0.188l-0.012,1.326l-1.961-0.913l-0.255,0.118l-4.614,9.637l-2.163,0.09l-0.161,0.237l1.044,2.363l-1.485,3.106
		l2.968,1.557l0.208-0.141l1.918-4.043l4.325-0.178l-0.039,3.585l3.291,0.948l0.162-0.188L57.8,13.813z M44.378,30.228l-1.353-3.016
		l-4.462,0.202l2.962-12.181l-3.106-1.647l-0.278,0.143l-3.749,15.351l3.106,1.651l6.741-0.293L44.378,30.228z M29.638,21.523
		l5.3-5.604l-0.049-0.325l-2.273-1.957l-6.058,6.611l1.189-4.894l-3.107-1.648l-0.278,0.143l-3.749,15.357l3.107,1.646l0.278-0.142
		l1.078-4.382l1.866-1.992l2.871,6.533l3.315-1.17l0.021-0.254L29.638,21.523z"/>
</g>
</svg>
