<?xml version="1.0" encoding="utf-8"?>
<!-- Generator: Adobe Illustrator 16.0.3, SVG Export Plug-In . SVG Version: 6.00 Build 0)  -->
<!DOCTYPE svg PUBLIC "-//W3C//DTD SVG 1.1//EN" "http://www.w3.org/Graphics/SVG/1.1/DTD/svg11.dtd">
<svg version="1.1" id="Vrstva_1" xmlns="http://www.w3.org/2000/svg" xmlns:xlink="http://www.w3.org/1999/xlink" x="0px" y="0px"
	 width="339.849px" height="42.133px" viewBox="0 0 339.849 42.133" enable-background="new 0 0 339.849 42.133"
	 xml:space="preserve">
<polygon points="2.397,42.133 0,39.49 13.096,1.516 337.453,0 339.849,2.644 328.072,40.607 "/>
<g>
	<defs>
		
			<rect id="SVGID_1_" x="-251.02" y="-276.571" transform="matrix(-1 0.0087 -0.0087 -1 340.026 40.6495)" width="841.89" height="595.275"/>
	</defs>
	<clipPath id="SVGID_2_">
		<use xlink:href="#SVGID_1_"  overflow="visible"/>
	</clipPath>
	<path clip-path="url(#SVGID_2_)" fill="#FFFFFF" d="M325.835,12.707l-3.012-1.602l-0.279,0.143l-2.111,8.576l-1.326-5.476
		l-2.205,0.507l0.518-2.074l-3.014-1.602l-0.279,0.143l-3.771,15.403l3.014,1.602l0.279-0.142l2.762-11.255l2.361,9.722l3.016,1.602
		l0.277-0.142L325.835,12.707z M303.921,25.968c-2.162,0.112-4.385-1.357-4.42-5.335c-0.025-3.024,1.297-5.896,2.477-6.906
		c1.936-0.621,4.736,0.563,2.986,4.975l0.189,0.185l1.156-0.522C306.828,20.709,305.816,24.556,303.921,25.968 M309.541,15.708
		l-0.508,0.213c0.57-2.888-1.117-4.849-4.041-4.823c-4.43,0.039-9.203,4.66-9.148,11.057c0.031,3.49,2.102,6.469,5.406,6.441
		c5.809-0.051,9.4-8.408,8.525-12.727L309.541,15.708z M291.595,28.376l3.748-15.357l-3.105-1.647l-0.279,0.143l-3.748,15.357
		l3.105,1.647L291.595,28.376z M289.732,14.764l0.139-0.21l-1.354-3.009l-10.598,0.44l-0.162,0.235l1.328,2.986l2.674-0.116
		l-2.896,11.863l3.107,1.647l0.277-0.142l3.301-13.519L289.732,14.764z M277.226,13.178l-3.107-1.648l-0.279,0.143l-3.57,14.591
		c-0.139,0.023-0.301,0.049-0.465,0.051c-2.021,0.018-3.57-1.598-2.898-4.371l2.088-8.694l-3.105-1.647l-0.277,0.143l-2.328,9.695
		c-1.01,4.171,1.109,7.477,4.637,7.446c1.35-0.012,2.438-0.533,3.314-1.261l1.963,1.052l0.279-0.143L277.226,13.178z M252.91,22.417
		c2.297-0.483,3.783-0.707,5.018-0.368c0.25,1.923-1.547,3.866-5.783,3.483L252.91,22.417z M254.591,15.54
		c1.414-0.873,3.572-1.451,5.279-0.419c-0.264,1.771-1.732,3.994-6.107,3.823L254.591,15.54z M259.005,20.9
		c4.43-2.995,3.117-9.431-2.027-9.386c-1.186,0.01-2.602,0.441-3.598,0.939l-1.379-0.729l-0.279,0.143l-3.75,15.356l3.107,1.647
		l0.279-0.142l0.561-2.262l1.813,2.543C259.587,29.259,263.279,23.697,259.005,20.9 M244.283,28.789l3.748-15.356l-3.105-1.648
		l-0.279,0.143l-3.748,15.357l3.107,1.646L244.283,28.789z M238.48,15.236c-0.094,2.56-2.057,4.251-5.756,4.051l0.875-3.613
		C236.285,14.231,238.48,15.236,238.48,15.236 M240.582,16.52c-0.021-2.511-1.832-4.845-5.227-4.815
		c-1.186,0.01-2.322,0.37-3.227,0.796l-1.121-0.594l-0.277,0.143c0,0-2.021,8.18-3.75,15.357l3.107,1.646l0.277-0.142l1.482-6.06
		c0.303,0.043,0.582,0.04,0.861,0.061l3.66,6.18l2.986-1.469l0.066-0.303l-3.02-5.066C239.181,21.137,240.601,18.73,240.582,16.52
		 M228.49,15.298l0.137-0.21l-1.35-3.009l-10.6,0.44l-0.162,0.235l1.33,2.986l2.674-0.116l-2.896,11.864l3.107,1.646l0.277-0.143
		l3.299-13.518L228.49,15.298z M203.675,21.524l-1.145,4.688c0.76,1.801,3.027,3.217,5.678,3.194
		c3.699-0.032,5.932-2.485,5.902-5.786c-0.047-5.284-7.318-4.731-7.949-7.613c3.426-2.147,7.652,0.096,8.164,2.862l0.256,0.068
		l1.102-4.456c-0.756-1.204-2.627-2.584-5.137-2.562c-3.42,0.03-6.328,2.476-6.301,5.781c0.045,4.959,6.666,4.016,8.137,7.518
		c-2.82,1.859-8.02,0.351-8.451-3.627L203.675,21.524z M198.763,29.187l3.75-15.357l-3.107-1.648l-0.277,0.143l-3.748,15.356
		l3.105,1.647L198.763,29.187z M187.318,16.309c1.174-1.196,3.963-1.452,5.229-0.417c0.723,2.851-1.041,8.584-7.543,9.85
		L187.318,16.309z M189.558,12.104c-1.139,0.01-2.438,0.393-3.363,0.959l-1.426-0.754l-0.277,0.143l-3.299,13.533l-0.723-0.065
		l-0.162,0.262l2.449,3.354c6.746,0.175,12.189-4.717,12.137-10.875C194.863,15.104,193.093,12.073,189.558,12.104 M165.799,18.568
		l-1.647-2.264l0.091-0.256l8.24-4.281l1.648,2.265l-0.092,0.256l-4.675,2.436l3.304,0.228l1.648,2.265l-0.092,0.256l-5.254,2.744
		l3.559,0.248l1.365,1.871l-0.09,0.257l-10.833,5.63l-1.671-2.289l0.09-0.256l6.435-3.357l-3.746-0.247l-1.271-1.802l0.091-0.257
		l6.157-3.217L165.799,18.568z M143.43,16.459l6.693-0.291l0.139-0.21l-1.352-3.01l-7.021,0.294l-1.051-0.549l-0.277,0.143
		l-3.749,15.358l3.106,1.646l7.462-0.32l0.138-0.211l-1.352-3.01l-5.185,0.232l0.876-3.617l5.416-0.234l0.138-0.21l-1.257-2.807
		l-3.558,0.146L143.43,16.459z M137.184,14.353l-3.014-1.602l-0.278,0.143l-2.111,8.576l-1.327-5.476l-2.204,0.507l0.517-2.074
		l-3.014-1.602l-0.278,0.143l-3.771,15.403l3.014,1.602l0.277-0.143l2.763-11.254l2.363,9.722l3.014,1.602l0.278-0.142
		L137.184,14.353z M118.012,29.891l3.748-15.356l-3.106-1.648l-0.276,0.143l-3.75,15.357l3.106,1.646L118.012,29.891z M115,14.594
		l-3.107-1.648l-0.277,0.143l-1.774,7.25l-4.021,0.175l1.438-5.853l-3.107-1.648l-0.277,0.143l-1.842,7.505l-1.627,0.06
		l-0.161,0.231l1.115,2.502l-1.235,5.059l3.106,1.646l0.278-0.143l1.528-6.213l3.998-0.151l-1.168,4.794l3.107,1.646l0.278-0.142
		L115,14.594z M95.271,20.951l5.299-5.604l-0.049-0.325l-2.272-1.957l-6.058,6.611l1.189-4.894l-3.107-1.648l-0.278,0.143
		l-3.749,15.357l3.107,1.646l0.278-0.143l1.078-4.381l1.867-1.993l2.87,6.532l3.315-1.168l0.021-0.255L95.271,20.951z
		 M76.486,22.757l-2.813,0.095l2.876-6.066L76.486,22.757z M80.063,13.619l-3.289-0.948l-0.166,0.188l-0.011,1.326l-1.962-0.913
		l-0.255,0.118l-4.614,9.638l-2.163,0.088l-0.159,0.238l1.043,2.363l-1.485,3.107l2.968,1.557l0.208-0.141l1.919-4.044l4.324-0.177
		l-0.039,3.584l3.292,0.947l0.161-0.187L80.063,13.619z M65.256,16.748c-0.093,2.56-2.056,4.251-5.755,4.051l0.875-3.613
		C63.062,15.743,65.256,16.748,65.256,16.748 M67.358,18.031c-0.021-2.511-1.83-4.845-5.225-4.815
		c-1.186,0.01-2.323,0.37-3.226,0.796l-1.121-0.594l-0.279,0.143c0,0-2.022,8.18-3.75,15.357l3.109,1.646l0.277-0.142l1.482-6.06
		c0.302,0.043,0.582,0.04,0.86,0.061l3.659,6.18l2.987-1.469l0.067-0.303l-3.021-5.066C65.958,22.648,67.377,20.242,67.358,18.031
		 M48.7,23l-2.813,0.095l2.878-6.066L48.7,23z M52.276,13.861l-3.288-0.947l-0.166,0.188l-0.011,1.325l-1.961-0.913l-0.255,0.118
		l-4.615,9.638l-2.162,0.089l-0.161,0.237l1.044,2.363l-1.485,3.107l2.968,1.557l0.208-0.141l1.919-4.043l4.325-0.178l-0.039,3.584
		l3.292,0.948l0.162-0.187L52.276,13.861z M38.854,30.277l-1.353-3.016l-4.462,0.201l2.962-12.181l-3.106-1.646l-0.278,0.143
		l-3.749,15.351l3.106,1.651l6.741-0.292L38.854,30.277z M24.114,21.572l5.299-5.604l-0.049-0.324l-2.273-1.958l-6.058,6.611
		l1.189-4.894l-3.107-1.648l-0.278,0.143l-3.75,15.357l3.108,1.646l0.277-0.143l1.078-4.381l1.866-1.993l2.871,6.532l3.315-1.168
		l0.021-0.256L24.114,21.572z"/>
</g>
</svg>
