<?xml version="1.0" encoding="utf-8"?>
<!-- Generator: Adobe Illustrator 16.0.3, SVG Export Plug-In . SVG Version: 6.00 Build 0)  -->
<!DOCTYPE svg PUBLIC "-//W3C//DTD SVG 1.1//EN" "http://www.w3.org/Graphics/SVG/1.1/DTD/svg11.dtd">
<svg version="1.1" id="Vrstva_1" xmlns="http://www.w3.org/2000/svg" xmlns:xlink="http://www.w3.org/1999/xlink" x="0px" y="0px"
	 width="862px" height="481.439px" viewBox="0 0 862 481.439" enable-background="new 0 0 862 481.439" xml:space="preserve">
<polygon points="10.971,387.475 21.926,387.475 21.926,436.689 46.575,436.689 46.575,446.399 10.971,446.399 "/>
<polygon points="96.872,387.475 96.872,397.102 69.982,397.102 69.982,411.957 92.142,411.957 92.142,421.585 69.982,421.585 
	69.982,436.772 97.785,436.772 97.785,446.399 59.027,446.399 59.027,387.475 "/>
<polygon points="105.84,387.475 150.573,387.475 150.573,397.185 133.642,397.185 133.642,446.399 122.687,446.399 122.687,397.185 
	105.84,397.185 "/>
<polygon points="162.943,387.475 172.321,387.475 201.618,427.312 201.618,387.475 212.573,387.475 212.573,446.399 
	203.194,446.399 173.898,406.314 173.898,446.399 162.943,446.399 "/>
<rect x="231.334" y="387.475" width="10.955" height="58.926"/>
<polygon points="285.532,446.399 285.532,387.475 296.487,387.475 296.487,414.779 319.558,387.475 333.087,387.475 
	312.007,412.538 334.747,446.399 321.883,446.399 304.537,420.34 296.487,429.552 296.487,446.399 "/>
<rect x="345.127" y="387.475" width="10.955" height="58.926"/>
<polygon points="374.841,387.475 384.219,387.475 413.515,427.312 413.515,387.475 424.47,387.475 424.47,446.399 415.092,446.399 
	385.796,406.314 385.796,446.399 374.841,446.399 "/>
<g>
	<defs>
		<rect id="SVGID_1_" x="-264" y="-189" width="1394" height="896"/>
	</defs>
	<clipPath id="SVGID_2_">
		<use xlink:href="#SVGID_1_"  overflow="visible"/>
	</clipPath>
	<path clip-path="url(#SVGID_2_)" d="M469.706,386.479c-17.429,0-30.542,13.279-30.542,30.459c0,17.179,13.113,30.458,30.542,30.458
		c17.428,0,30.541-13.279,30.541-30.458C500.247,399.758,487.134,386.479,469.706,386.479 M469.706,436.938
		c-10.872,0-19.255-8.632-19.255-20.001c0-11.37,8.383-20.002,19.255-20.002s19.254,8.632,19.254,20.002
		C488.96,428.307,480.578,436.938,469.706,436.938"/>
	<polygon clip-path="url(#SVGID_2_)" points="539.428,446.399 539.428,387.475 550.383,387.475 550.383,414.779 573.454,387.475 
		586.982,387.475 565.902,412.538 588.642,446.399 575.778,446.399 558.433,420.34 550.383,429.552 550.383,446.399 	"/>
	<rect x="599.021" y="387.475" clip-path="url(#SVGID_2_)" width="10.954" height="58.926"/>
	<polygon clip-path="url(#SVGID_2_)" points="628.735,387.475 638.113,387.475 667.409,427.312 667.409,387.475 678.364,387.475 
		678.364,446.399 668.986,446.399 639.69,406.314 639.69,446.399 628.735,446.399 	"/>
	<path clip-path="url(#SVGID_2_)" d="M700.529,429.469c2.738,4.896,7.304,7.885,12.864,7.885c5.809,0,9.544-2.988,9.544-6.474
		c0-5.146-4.896-6.39-12.947-10.042c-8.133-3.652-16.101-7.055-16.101-17.512c0-9.627,8.466-16.848,19.918-16.848
		c7.636,0,15.022,3.403,19.006,10.457l-8.134,6.059c-2.821-4.481-6.805-6.557-11.037-6.557c-5.063,0-8.799,2.573-8.799,6.557
		c0,4.73,5.396,6.391,12.201,9.461c9.627,4.233,16.848,7.719,16.848,18.093c0,8.88-7.47,16.848-20.665,16.848
		c-8.632,0-16.848-4.066-20.997-11.619L700.529,429.469z"/>
	<polygon clip-path="url(#SVGID_2_)" points="748.336,446.399 748.336,387.475 759.291,387.475 759.291,414.779 782.361,387.475 
		795.891,387.475 774.811,412.538 797.55,446.399 784.687,446.399 767.341,420.34 759.291,429.552 759.291,446.399 	"/>
	<path clip-path="url(#SVGID_2_)" d="M834.073,387.475h-10.955l-22.74,58.925h11.204l5.561-14.44h22.906l5.561,14.44h11.12
		L834.073,387.475z M820.545,422.332l8.051-22.657l8.05,22.657H820.545z"/>
	<rect x="3.499" y="470.681" clip-path="url(#SVGID_2_)" width="854.915" height="10.759"/>
	<polygon clip-path="url(#SVGID_2_)" points="231.334,355.72 270.751,355.72 231.334,381.634 	"/>
	<polygon clip-path="url(#SVGID_2_)" points="823.084,355.72 862.501,355.72 823.084,381.634 	"/>
	<rect x="365.998" y="267.191" clip-path="url(#SVGID_2_)" width="9.375" height="11.625"/>
	<rect x="365.998" y="280.691" clip-path="url(#SVGID_2_)" width="9.375" height="9.375"/>
	<rect x="365.998" y="291.941" clip-path="url(#SVGID_2_)" width="9.375" height="9.375"/>
	<rect x="365.998" y="303.191" clip-path="url(#SVGID_2_)" width="9.375" height="9.375"/>
	<rect x="379.325" y="267.191" clip-path="url(#SVGID_2_)" width="9.375" height="11.625"/>
	<rect x="379.325" y="280.691" clip-path="url(#SVGID_2_)" width="9.375" height="9.375"/>
	<rect x="379.325" y="291.941" clip-path="url(#SVGID_2_)" width="9.375" height="9.375"/>
	<rect x="379.325" y="303.191" clip-path="url(#SVGID_2_)" width="9.375" height="9.375"/>
	<rect x="473.065" y="267.191" clip-path="url(#SVGID_2_)" width="9.375" height="11.625"/>
	<rect x="473.065" y="280.691" clip-path="url(#SVGID_2_)" width="9.375" height="9.375"/>
	<rect x="473.065" y="291.941" clip-path="url(#SVGID_2_)" width="9.375" height="9.375"/>
	<rect x="473.065" y="303.191" clip-path="url(#SVGID_2_)" width="9.375" height="9.375"/>
	<rect x="486.393" y="267.191" clip-path="url(#SVGID_2_)" width="9.375" height="11.625"/>
	<rect x="486.393" y="280.691" clip-path="url(#SVGID_2_)" width="9.375" height="9.375"/>
	<rect x="486.393" y="291.941" clip-path="url(#SVGID_2_)" width="9.375" height="9.375"/>
	<rect x="486.393" y="303.191" clip-path="url(#SVGID_2_)" width="9.375" height="9.375"/>
	<path clip-path="url(#SVGID_2_)" d="M399.446,179.922c0-10.18-8.252-18.432-18.432-18.432c-10.179,0-18.431,8.252-18.431,18.432
		v-30.254h36.862L399.446,179.922z"/>
	<path clip-path="url(#SVGID_2_)" d="M450.18,179.922c0-10.18-8.252-18.432-18.432-18.432c-10.178,0-18.43,8.252-18.43,18.432
		v-30.254h36.862V179.922z"/>
	<path clip-path="url(#SVGID_2_)" d="M500.874,179.922c0-10.18-8.252-18.432-18.432-18.432c-10.179,0-18.432,8.252-18.432,18.432
		v-30.254h36.863V179.922z"/>
	<rect x="340.749" y="236.933" clip-path="url(#SVGID_2_)" width="180.835" height="3.667"/>
	<polygon clip-path="url(#SVGID_2_)" points="515.853,112.325 431.252,83.049 346.479,112.349 346.479,115.966 515.853,115.966 	"/>
	<rect x="366.73" y="183.741" clip-path="url(#SVGID_2_)" width="12.681" height="10.341"/>
	<rect x="366.73" y="195.597" clip-path="url(#SVGID_2_)" width="12.681" height="10.341"/>
	<rect x="366.73" y="207.453" clip-path="url(#SVGID_2_)" width="12.681" height="10.341"/>
	<rect x="366.73" y="219.308" clip-path="url(#SVGID_2_)" width="12.681" height="10.341"/>
	<rect x="382.618" y="183.741" clip-path="url(#SVGID_2_)" width="12.681" height="10.341"/>
	<rect x="382.618" y="195.597" clip-path="url(#SVGID_2_)" width="12.681" height="10.341"/>
	<rect x="382.618" y="207.453" clip-path="url(#SVGID_2_)" width="12.681" height="10.341"/>
	<rect x="382.618" y="219.308" clip-path="url(#SVGID_2_)" width="12.681" height="10.341"/>
	<path clip-path="url(#SVGID_2_)" d="M512.828,215.167v-65.5h-10.167l-0.001,65.5h-40.521l0.001-65.5h-10.167l-0.001,65.5h-40.527
		v-65.5h-10.167l-0.001,65.5H360.75l0.001-65.5h-10.167l-0.001,65.5h-6.85v20.667h175.935v-20.667H512.828z M516.834,232.167
		H346.567V218h4.016l-0.001,12.499h10.168V218h40.527V230.5h10.167L411.445,218h40.527V230.5h10.167V218h40.521V230.5h10.167
		L512.828,218h4.006V232.167z"/>
	<rect x="350.675" y="117.666" clip-path="url(#SVGID_2_)" width="160.982" height="10.833"/>
	<rect x="514.798" y="162.484" clip-path="url(#SVGID_2_)" width="236.917" height="3.307"/>
	<rect x="514.797" y="167.775" clip-path="url(#SVGID_2_)" width="233.56" height="7.237"/>
	<rect x="348.563" y="130.427" clip-path="url(#SVGID_2_)" width="165.207" height="2.823"/>
	<rect x="417.464" y="183.741" clip-path="url(#SVGID_2_)" width="12.681" height="10.341"/>
	<rect x="417.464" y="195.597" clip-path="url(#SVGID_2_)" width="12.681" height="10.341"/>
	<rect x="417.464" y="207.453" clip-path="url(#SVGID_2_)" width="12.681" height="10.341"/>
	<rect x="417.464" y="219.308" clip-path="url(#SVGID_2_)" width="12.681" height="10.341"/>
	<rect x="433.352" y="183.741" clip-path="url(#SVGID_2_)" width="12.682" height="10.341"/>
	<rect x="433.352" y="195.597" clip-path="url(#SVGID_2_)" width="12.682" height="10.341"/>
	<rect x="433.352" y="207.453" clip-path="url(#SVGID_2_)" width="12.682" height="10.341"/>
	<rect x="433.352" y="219.308" clip-path="url(#SVGID_2_)" width="12.682" height="10.341"/>
	<path clip-path="url(#SVGID_2_)" d="M381.014,181.338L381.014,181.338L381.014,181.338z"/>
	<rect x="468.158" y="183.741" clip-path="url(#SVGID_2_)" width="12.681" height="10.341"/>
	<rect x="468.158" y="195.597" clip-path="url(#SVGID_2_)" width="12.681" height="10.341"/>
	<rect x="468.158" y="207.453" clip-path="url(#SVGID_2_)" width="12.681" height="10.341"/>
	<rect x="468.158" y="219.308" clip-path="url(#SVGID_2_)" width="12.681" height="10.341"/>
	<rect x="484.047" y="183.741" clip-path="url(#SVGID_2_)" width="12.682" height="10.341"/>
	<rect x="484.047" y="195.597" clip-path="url(#SVGID_2_)" width="12.682" height="10.341"/>
	<rect x="484.047" y="207.453" clip-path="url(#SVGID_2_)" width="12.682" height="10.341"/>
	<rect x="484.047" y="219.308" clip-path="url(#SVGID_2_)" width="12.682" height="10.341"/>
	<path clip-path="url(#SVGID_2_)" d="M721.1,286.354v33.913l-29.418,0.001v-33.914h-24.624v33.913l-29.418,0.001v-33.914h-24.623
		c-0.001,10.086-0.001,33.913-0.001,33.913l-29.418,0.001v-33.914h-24.623c0,10.086-0.001,33.913-0.001,33.913l-29.418,0.001
		v-33.914h-11.305v41.944h214.083v-41.944H721.1z"/>
	<path clip-path="url(#SVGID_2_)" d="M730.633,263.51v-7.402H518.251v26.485h11.305c0-8.123,6.586-14.709,14.709-14.709
		c8.124,0,14.71,6.586,14.71,14.709h24.623c0-8.123,6.586-14.709,14.709-14.709c8.124,0,14.71,6.586,14.71,14.709h24.623
		c0-8.123,6.585-14.709,14.709-14.709s14.71,6.586,14.71,14.709h24.623c0-8.123,6.585-14.709,14.709-14.709
		s14.709,6.586,14.709,14.709h11.234V263.51H730.633z"/>
	<path clip-path="url(#SVGID_2_)" d="M544.265,282.593L544.265,282.593L544.265,282.593z"/>
	<rect x="532.792" y="284.523" clip-path="url(#SVGID_2_)" width="10.187" height="9.477"/>
	<rect x="545.553" y="284.523" clip-path="url(#SVGID_2_)" width="10.187" height="9.477"/>
	<rect x="532.792" y="296.175" clip-path="url(#SVGID_2_)" width="10.187" height="9.478"/>
	<rect x="545.553" y="296.175" clip-path="url(#SVGID_2_)" width="10.187" height="9.478"/>
	<rect x="532.792" y="307.828" clip-path="url(#SVGID_2_)" width="10.187" height="9.478"/>
	<rect x="545.553" y="307.828" clip-path="url(#SVGID_2_)" width="10.187" height="9.478"/>
	<path clip-path="url(#SVGID_2_)" d="M598.307,282.593"/>
	<rect x="586.834" y="284.523" clip-path="url(#SVGID_2_)" width="10.186" height="9.477"/>
	<rect x="599.595" y="284.523" clip-path="url(#SVGID_2_)" width="10.187" height="9.477"/>
	<rect x="586.834" y="296.175" clip-path="url(#SVGID_2_)" width="10.186" height="9.478"/>
	<rect x="599.595" y="296.175" clip-path="url(#SVGID_2_)" width="10.187" height="9.478"/>
	<rect x="586.834" y="307.828" clip-path="url(#SVGID_2_)" width="10.186" height="9.478"/>
	<rect x="599.595" y="307.828" clip-path="url(#SVGID_2_)" width="10.187" height="9.478"/>
	<path clip-path="url(#SVGID_2_)" d="M652.349,282.593"/>
	<rect x="640.876" y="284.523" clip-path="url(#SVGID_2_)" width="10.187" height="9.477"/>
	<rect x="653.637" y="284.523" clip-path="url(#SVGID_2_)" width="10.187" height="9.477"/>
	<rect x="640.876" y="296.175" clip-path="url(#SVGID_2_)" width="10.187" height="9.478"/>
	<rect x="653.637" y="296.175" clip-path="url(#SVGID_2_)" width="10.187" height="9.478"/>
	<rect x="640.876" y="307.828" clip-path="url(#SVGID_2_)" width="10.187" height="9.478"/>
	<rect x="653.637" y="307.828" clip-path="url(#SVGID_2_)" width="10.187" height="9.478"/>
	<path clip-path="url(#SVGID_2_)" d="M706.391,282.593"/>
	<rect x="694.917" y="284.523" clip-path="url(#SVGID_2_)" width="10.187" height="9.477"/>
	<rect x="707.678" y="284.523" clip-path="url(#SVGID_2_)" width="10.187" height="9.477"/>
	<rect x="694.917" y="296.175" clip-path="url(#SVGID_2_)" width="10.187" height="9.478"/>
	<rect x="707.678" y="296.175" clip-path="url(#SVGID_2_)" width="10.187" height="9.478"/>
	<rect x="694.917" y="307.828" clip-path="url(#SVGID_2_)" width="10.187" height="9.478"/>
	<rect x="707.678" y="307.828" clip-path="url(#SVGID_2_)" width="10.187" height="9.478"/>
	<path clip-path="url(#SVGID_2_)" d="M778.596,282.593"/>
	<rect x="767.123" y="284.523" clip-path="url(#SVGID_2_)" width="10.186" height="9.477"/>
	<rect x="779.884" y="284.523" clip-path="url(#SVGID_2_)" width="10.187" height="9.477"/>
	<rect x="767.123" y="296.175" clip-path="url(#SVGID_2_)" width="10.186" height="9.478"/>
	<rect x="779.884" y="296.175" clip-path="url(#SVGID_2_)" width="10.187" height="9.478"/>
	<rect x="767.123" y="307.828" clip-path="url(#SVGID_2_)" width="10.186" height="9.478"/>
	<rect x="779.884" y="307.828" clip-path="url(#SVGID_2_)" width="10.187" height="9.478"/>
	<path clip-path="url(#SVGID_2_)" d="M841.651,286.354c0,10.086-0.001,33.913-0.001,33.913l-29.418,0.001v-33.914h-18.928v33.913
		l-29.418,0.001v-33.914h-16.636v41.944h106.63v-41.944H841.651z"/>
	<path clip-path="url(#SVGID_2_)" d="M853.882,279.285v-23.178H748.951v7.402h-1.7v19.083h16.636
		c0-8.122,6.585-14.709,14.709-14.709s14.709,6.587,14.709,14.709h18.928c0-8.122,6.586-14.709,14.71-14.709
		s14.709,6.587,14.709,14.709h2.808h9.423h1.535v-3.308H853.882z"/>
	<path clip-path="url(#SVGID_2_)" d="M826.942,282.593"/>
	<rect x="815.468" y="284.523" clip-path="url(#SVGID_2_)" width="10.187" height="9.477"/>
	<rect x="828.23" y="284.523" clip-path="url(#SVGID_2_)" width="10.186" height="9.477"/>
	<rect x="815.468" y="296.175" clip-path="url(#SVGID_2_)" width="10.187" height="9.478"/>
	<rect x="828.23" y="296.175" clip-path="url(#SVGID_2_)" width="10.186" height="9.478"/>
	<rect x="815.468" y="307.828" clip-path="url(#SVGID_2_)" width="10.187" height="9.478"/>
	<rect x="828.23" y="307.828" clip-path="url(#SVGID_2_)" width="10.186" height="9.478"/>
	<rect x="343.915" y="241.833" clip-path="url(#SVGID_2_)" width="174.502" height="6.5"/>
	<rect x="320.476" y="332.154" clip-path="url(#SVGID_2_)" width="223.622" height="10.758"/>
	<rect x="343.788" y="249.567" clip-path="url(#SVGID_2_)" width="13.9" height="2.875"/>
	<rect x="345.987" y="254.152" clip-path="url(#SVGID_2_)" width="9.503" height="74.146"/>
	<rect x="396.882" y="249.567" clip-path="url(#SVGID_2_)" width="14.468" height="2.875"/>
	<rect x="450.416" y="249.567" clip-path="url(#SVGID_2_)" width="14.468" height="2.875"/>
	<rect x="503.949" y="249.891" clip-path="url(#SVGID_2_)" width="14.468" height="2.875"/>
	<rect x="399.364" y="254.152" clip-path="url(#SVGID_2_)" width="9.503" height="74.146"/>
	<rect x="452.898" y="254.152" clip-path="url(#SVGID_2_)" width="9.503" height="74.146"/>
	<rect x="506.432" y="254.438" clip-path="url(#SVGID_2_)" width="9.503" height="74.147"/>
	<rect x="530.601" y="195.75" clip-path="url(#SVGID_2_)" width="9.125" height="10.03"/>
	<rect x="530.601" y="208.018" clip-path="url(#SVGID_2_)" width="9.125" height="10.03"/>
	<rect x="530.601" y="220.286" clip-path="url(#SVGID_2_)" width="9.125" height="10.03"/>
	<rect x="530.601" y="232.554" clip-path="url(#SVGID_2_)" width="9.125" height="10.03"/>
	<rect x="542.351" y="195.75" clip-path="url(#SVGID_2_)" width="9.125" height="10.03"/>
	<rect x="542.351" y="208.018" clip-path="url(#SVGID_2_)" width="9.125" height="10.03"/>
	<rect x="542.351" y="220.286" clip-path="url(#SVGID_2_)" width="9.125" height="10.03"/>
	<rect x="542.351" y="232.554" clip-path="url(#SVGID_2_)" width="9.125" height="10.03"/>
	<rect x="585.683" y="195.75" clip-path="url(#SVGID_2_)" width="9.125" height="10.03"/>
	<rect x="585.683" y="208.018" clip-path="url(#SVGID_2_)" width="9.125" height="10.03"/>
	<rect x="585.683" y="220.286" clip-path="url(#SVGID_2_)" width="9.125" height="10.03"/>
	<rect x="585.683" y="232.554" clip-path="url(#SVGID_2_)" width="9.125" height="10.03"/>
	<rect x="597.433" y="195.75" clip-path="url(#SVGID_2_)" width="9.125" height="10.03"/>
	<rect x="597.433" y="208.018" clip-path="url(#SVGID_2_)" width="9.125" height="10.03"/>
	<rect x="597.433" y="220.286" clip-path="url(#SVGID_2_)" width="9.125" height="10.03"/>
	<rect x="597.433" y="232.554" clip-path="url(#SVGID_2_)" width="9.125" height="10.03"/>
	<rect x="640.766" y="195.75" clip-path="url(#SVGID_2_)" width="9.125" height="10.03"/>
	<rect x="640.766" y="208.018" clip-path="url(#SVGID_2_)" width="9.125" height="10.03"/>
	<rect x="640.766" y="220.286" clip-path="url(#SVGID_2_)" width="9.125" height="10.03"/>
	<rect x="640.766" y="232.554" clip-path="url(#SVGID_2_)" width="9.125" height="10.03"/>
	<rect x="652.516" y="195.75" clip-path="url(#SVGID_2_)" width="9.125" height="10.03"/>
	<rect x="652.516" y="208.018" clip-path="url(#SVGID_2_)" width="9.125" height="10.03"/>
	<rect x="652.516" y="220.286" clip-path="url(#SVGID_2_)" width="9.125" height="10.03"/>
	<rect x="652.516" y="232.554" clip-path="url(#SVGID_2_)" width="9.125" height="10.03"/>
	<rect x="697.266" y="195.75" clip-path="url(#SVGID_2_)" width="9.125" height="10.03"/>
	<rect x="697.266" y="208.018" clip-path="url(#SVGID_2_)" width="9.125" height="10.03"/>
	<rect x="697.266" y="220.286" clip-path="url(#SVGID_2_)" width="9.125" height="10.03"/>
	<rect x="697.266" y="232.554" clip-path="url(#SVGID_2_)" width="9.125" height="10.03"/>
	<rect x="709.016" y="195.75" clip-path="url(#SVGID_2_)" width="9.125" height="10.03"/>
	<rect x="709.016" y="208.018" clip-path="url(#SVGID_2_)" width="9.125" height="10.03"/>
	<rect x="709.016" y="220.286" clip-path="url(#SVGID_2_)" width="9.125" height="10.03"/>
	<rect x="709.016" y="232.554" clip-path="url(#SVGID_2_)" width="9.125" height="10.03"/>
	<rect x="734.843" y="177.347" clip-path="url(#SVGID_2_)" width="11.725" height="5.236"/>
	<rect x="734.844" y="263.511" clip-path="url(#SVGID_2_)" width="10.115" height="64.787"/>
	<rect x="733.142" y="256.109" clip-path="url(#SVGID_2_)" width="13.519" height="5.235"/>
	<polygon clip-path="url(#SVGID_2_)" points="364.06,135.183 347.392,135.183 350.583,147.683 360.833,147.683 	"/>
	<polygon clip-path="url(#SVGID_2_)" points="499.352,135.183 502.577,147.683 512.839,147.683 516.03,135.183 	"/>
	<polygon clip-path="url(#SVGID_2_)" points="395.762,135.183 366.267,135.183 362.426,147.683 399.603,147.683 	"/>
	<polygon clip-path="url(#SVGID_2_)" points="397.969,135.183 401.195,147.683 411.529,147.683 414.754,135.183 	"/>
	<polygon clip-path="url(#SVGID_2_)" points="463.814,147.683 500.985,147.683 497.145,135.183 467.655,135.183 	"/>
	<polygon clip-path="url(#SVGID_2_)" points="446.456,135.183 416.961,135.183 413.12,147.683 450.297,147.683 	"/>
	<polygon clip-path="url(#SVGID_2_)" points="448.663,135.183 451.889,147.683 462.223,147.683 465.448,135.183 	"/>
	<polygon clip-path="url(#SVGID_2_)" points="432.917,85.5 429.415,85.5 430.052,15.534 432.279,15.534 	"/>
	<path clip-path="url(#SVGID_2_)" d="M515.131,177.348v35.685h6.453v22.799l1.5,0.001v6h-2.745v7.667l211.995,0.067v-72.219H515.131
		z M554.49,245.101h-26.833v-52.085h26.833V245.101z M558.053,189.433h-34.029v-2.609h34.029V189.433z M609.549,245.101h-26.833
		v-52.085h26.833V245.101z M613.136,189.433h-34.03v-2.609h34.03V189.433z M664.607,245.101h-26.833v-52.085h26.833V245.101z
		 M668.218,189.433h-34.028v-2.609h34.028V189.433z M721.084,245.101h-26.833v-52.085h26.833V245.101z M724.718,189.433h-34.028
		v-2.609h34.028V189.433z"/>
	<path clip-path="url(#SVGID_2_)" d="M853.826,250.817v-18.309H744.959V184.75h-10.115v64.817h10.115v-2.958h106.883v4.208H520.339
		v3.307h338.075v-3.307H853.826z M851.842,238.578H744.959v-4.086h106.883V238.578z M744.959,240.563h106.883v4.062H744.959V240.563
		z"/>
	<path clip-path="url(#SVGID_2_)" d="M395.215,179.811c-0.015-0.144-0.045-0.282-0.064-0.425c-0.049-0.359-0.102-0.716-0.177-1.066
		c-0.032-0.147-0.076-0.289-0.113-0.435c-0.084-0.342-0.174-0.681-0.284-1.013c-0.043-0.129-0.092-0.254-0.139-0.381
		c-0.124-0.345-0.257-0.684-0.407-1.015c-0.046-0.103-0.097-0.203-0.146-0.305c-0.17-0.352-0.351-0.696-0.547-1.032
		c-0.043-0.074-0.088-0.145-0.132-0.218c-0.22-0.36-0.453-0.707-0.702-1.045c-0.033-0.045-0.066-0.09-0.101-0.134
		c-0.273-0.362-0.562-0.709-0.868-1.042c-0.017-0.019-0.034-0.039-0.052-0.058c-0.54-0.583-1.126-1.121-1.756-1.607
		c-0.37-0.285-0.753-0.551-1.15-0.8c-0.004-0.002-0.008-0.005-0.011-0.007c-0.396-0.247-0.803-0.474-1.223-0.682l-0.003-0.002
		c-1.513-0.749-3.17-1.249-4.928-1.42c-0.46-0.046-0.926-0.071-1.397-0.071c-0.472,0-0.938,0.025-1.398,0.071
		c-1.757,0.171-3.415,0.671-4.927,1.42l-0.003,0.002c-0.42,0.208-0.827,0.435-1.223,0.682c-0.004,0.002-0.008,0.005-0.012,0.007
		c-0.396,0.249-0.78,0.515-1.149,0.8c-0.246,0.19-0.485,0.387-0.719,0.593c-0.66,0.582-1.266,1.221-1.809,1.914
		c-0.005,0.006-0.009,0.013-0.014,0.019c-0.267,0.341-0.519,0.692-0.754,1.057c-0.007,0.011-0.013,0.022-0.02,0.033
		c-0.399,0.624-0.755,1.278-1.056,1.964c-0.376,0.858-0.67,1.759-0.872,2.695c-0.005,0.022-0.013,0.044-0.018,0.066
		c-0.088,0.42-0.153,0.849-0.204,1.282c-0.007,0.062-0.021,0.122-0.028,0.185c-0.051,0.491-0.079,0.99-0.079,1.495h2.537h8.836
		c0-0.203,0.021-0.401,0.06-0.591l-8.284-3.928c0.123-0.286,0.437-0.944,0.581-1.218l8.206,4.029
		c0.039-0.054,0.084-0.103,0.127-0.154l-5.9-6.984c0.231-0.207,0.775-0.655,1.022-0.844l5.721,7.14
		c0.067-0.036,0.131-0.078,0.2-0.109l-2.221-8.882c0.298-0.081,0.997-0.237,1.305-0.296l1.994,8.935
		c0.034-0.001,0.067-0.01,0.101-0.01c0.034,0,0.066,0.009,0.099,0.01l2.012-8.931c0.307,0.058,0.92,0.195,1.219,0.277l-2.157,8.894
		c0.077,0.034,0.147,0.08,0.221,0.12l5.714-7.14c0.247,0.188,0.753,0.604,0.985,0.812l-5.861,7.021
		c0.038,0.046,0.078,0.089,0.113,0.136l8.215-4.011c0.145,0.274,0.459,0.906,0.583,1.192l-8.295,3.933
		c0.041,0.193,0.064,0.393,0.064,0.599h8.836h2.536C395.299,180.822,395.269,180.313,395.215,179.811"/>
	<path clip-path="url(#SVGID_2_)" d="M445.949,179.811c-0.016-0.144-0.045-0.282-0.064-0.425c-0.05-0.359-0.103-0.716-0.178-1.066
		c-0.032-0.147-0.075-0.289-0.111-0.435c-0.086-0.342-0.176-0.681-0.284-1.013c-0.043-0.129-0.094-0.254-0.14-0.381
		c-0.125-0.345-0.258-0.684-0.408-1.015c-0.046-0.103-0.097-0.203-0.146-0.305c-0.169-0.352-0.35-0.696-0.546-1.032
		c-0.044-0.074-0.088-0.145-0.133-0.218c-0.219-0.36-0.452-0.707-0.701-1.045c-0.033-0.045-0.067-0.09-0.102-0.134
		c-0.272-0.362-0.562-0.709-0.867-1.042c-0.018-0.019-0.035-0.039-0.053-0.058c-0.54-0.583-1.127-1.121-1.757-1.607
		c-0.369-0.285-0.752-0.551-1.148-0.8c-0.004-0.002-0.009-0.005-0.012-0.007c-0.396-0.247-0.804-0.474-1.224-0.682l-0.003-0.002
		c-1.513-0.749-3.17-1.249-4.928-1.42c-0.46-0.046-0.925-0.071-1.397-0.071c-0.472,0-0.938,0.025-1.398,0.071
		c-1.757,0.171-3.415,0.671-4.927,1.42c-0.001,0.001-0.001,0.001-0.002,0.002c-0.42,0.208-0.828,0.435-1.224,0.682
		c-0.004,0.002-0.008,0.005-0.012,0.007c-0.396,0.249-0.779,0.515-1.148,0.8c-0.247,0.19-0.486,0.387-0.719,0.593
		c-0.66,0.582-1.266,1.221-1.809,1.914c-0.005,0.006-0.01,0.013-0.015,0.019c-0.266,0.341-0.518,0.692-0.753,1.057
		c-0.007,0.011-0.013,0.022-0.02,0.033c-0.4,0.624-0.756,1.278-1.056,1.964c-0.376,0.858-0.67,1.759-0.873,2.695
		c-0.005,0.022-0.012,0.044-0.017,0.066c-0.089,0.42-0.153,0.849-0.204,1.282c-0.008,0.062-0.021,0.122-0.028,0.185
		c-0.051,0.491-0.079,0.99-0.079,1.495H420h8.837c0-0.203,0.02-0.401,0.06-0.591l-8.285-3.928c0.123-0.286,0.438-0.944,0.582-1.218
		l8.205,4.029c0.04-0.054,0.085-0.103,0.128-0.154l-5.901-6.984c0.232-0.207,0.776-0.655,1.023-0.844l5.721,7.14
		c0.066-0.036,0.13-0.078,0.2-0.109l-2.221-8.882c0.298-0.081,0.997-0.237,1.304-0.296l1.995,8.935c0.033-0.001,0.066-0.01,0.1-0.01
		c0.034,0,0.066,0.009,0.1,0.01l2.013-8.931c0.307,0.058,0.92,0.195,1.218,0.277l-2.156,8.894c0.077,0.034,0.147,0.08,0.221,0.12
		l5.714-7.14c0.248,0.188,0.753,0.604,0.985,0.812l-5.86,7.021c0.037,0.046,0.077,0.089,0.112,0.136l8.215-4.011
		c0.145,0.274,0.46,0.906,0.583,1.192l-8.294,3.933c0.039,0.193,0.063,0.393,0.063,0.599h8.837h2.536
		C446.033,180.822,446.003,180.313,445.949,179.811"/>
	<path clip-path="url(#SVGID_2_)" d="M496.644,179.811c-0.016-0.144-0.045-0.282-0.063-0.425c-0.051-0.359-0.104-0.716-0.179-1.066
		c-0.032-0.147-0.075-0.289-0.111-0.435c-0.085-0.342-0.176-0.681-0.285-1.013c-0.042-0.129-0.093-0.254-0.139-0.381
		c-0.125-0.345-0.258-0.684-0.407-1.015c-0.047-0.103-0.098-0.203-0.146-0.305c-0.169-0.352-0.35-0.696-0.546-1.032
		c-0.044-0.074-0.088-0.145-0.133-0.218c-0.219-0.36-0.452-0.707-0.701-1.045c-0.033-0.045-0.067-0.09-0.101-0.134
		c-0.273-0.362-0.563-0.709-0.868-1.042c-0.018-0.019-0.035-0.039-0.053-0.058c-0.54-0.583-1.127-1.121-1.757-1.607
		c-0.369-0.285-0.752-0.551-1.148-0.8c-0.004-0.002-0.008-0.005-0.013-0.007c-0.395-0.247-0.803-0.474-1.223-0.682l-0.003-0.002
		c-1.513-0.749-3.17-1.249-4.928-1.42c-0.459-0.046-0.925-0.071-1.397-0.071c-0.472,0-0.938,0.025-1.397,0.071
		c-1.758,0.171-3.415,0.671-4.928,1.42c-0.001,0.001-0.001,0.001-0.002,0.002c-0.42,0.208-0.828,0.435-1.224,0.682
		c-0.004,0.002-0.008,0.005-0.012,0.007c-0.396,0.249-0.779,0.515-1.148,0.8c-0.247,0.19-0.485,0.387-0.719,0.593h-0.001
		c-0.66,0.582-1.266,1.221-1.809,1.914c-0.005,0.006-0.01,0.013-0.015,0.019c-0.266,0.341-0.518,0.692-0.753,1.057
		c-0.007,0.011-0.013,0.022-0.02,0.033c-0.4,0.624-0.757,1.278-1.057,1.964c-0.376,0.858-0.671,1.759-0.873,2.695
		c-0.005,0.022-0.012,0.044-0.017,0.066c-0.089,0.42-0.153,0.849-0.204,1.282c-0.008,0.062-0.021,0.122-0.028,0.185
		c-0.052,0.491-0.079,0.99-0.079,1.495h2.536h8.836c0-0.203,0.021-0.401,0.062-0.591l-8.285-3.928
		c0.123-0.286,0.438-0.944,0.582-1.218l8.205,4.029c0.04-0.054,0.085-0.103,0.128-0.154l-5.901-6.984
		c0.231-0.207,0.776-0.655,1.023-0.844l5.721,7.14c0.066-0.036,0.13-0.078,0.2-0.109l-2.222-8.882
		c0.299-0.081,0.998-0.237,1.305-0.296l1.995,8.935c0.034-0.001,0.065-0.01,0.1-0.01s0.066,0.009,0.101,0.01l2.011-8.931
		c0.308,0.058,0.921,0.195,1.219,0.277l-2.157,8.894c0.077,0.034,0.148,0.08,0.222,0.12l5.714-7.14
		c0.248,0.188,0.753,0.604,0.985,0.812l-5.86,7.021c0.037,0.046,0.077,0.089,0.113,0.136l8.214-4.011
		c0.145,0.274,0.46,0.906,0.583,1.192l-8.294,3.933c0.04,0.193,0.063,0.393,0.063,0.599h8.837h2.536
		C496.728,180.822,496.697,180.313,496.644,179.811"/>
	<path clip-path="url(#SVGID_2_)" d="M555.66,281.364c-0.012-0.115-0.036-0.227-0.052-0.341c-0.04-0.288-0.082-0.575-0.143-0.855
		c-0.025-0.117-0.061-0.232-0.09-0.35c-0.068-0.274-0.141-0.547-0.228-0.813c-0.034-0.104-0.075-0.203-0.112-0.306
		c-0.1-0.276-0.206-0.549-0.326-0.814c-0.038-0.083-0.079-0.164-0.118-0.245c-0.136-0.283-0.281-0.56-0.438-0.829
		c-0.035-0.059-0.07-0.116-0.106-0.175c-0.176-0.288-0.363-0.567-0.563-0.839c-0.026-0.036-0.052-0.072-0.08-0.108
		c-0.22-0.29-0.452-0.568-0.697-0.836c-0.014-0.016-0.028-0.031-0.042-0.047c-0.434-0.468-0.904-0.899-1.41-1.289
		c-0.297-0.229-0.604-0.443-0.923-0.643c-0.003-0.002-0.006-0.004-0.01-0.006c-0.317-0.198-0.645-0.381-0.981-0.548
		c-0.001,0-0.002-0.001-0.002-0.001c-1.215-0.601-2.545-1.003-3.956-1.141c-0.368-0.037-0.743-0.057-1.122-0.057
		s-0.753,0.02-1.121,0.057c-1.412,0.138-2.742,0.54-3.957,1.141c0,0.001,0,0.001-0.002,0.001c-0.337,0.167-0.664,0.35-0.981,0.548
		c-0.004,0.002-0.007,0.004-0.01,0.006c-0.318,0.199-0.626,0.413-0.923,0.643c-0.197,0.152-0.39,0.311-0.577,0.476
		c-0.529,0.467-1.017,0.98-1.452,1.537l-0.012,0.015c-0.214,0.273-0.416,0.556-0.604,0.849c-0.006,0.009-0.011,0.018-0.016,0.026
		c-0.321,0.501-0.607,1.026-0.849,1.576v0.001c-0.302,0.688-0.538,1.412-0.699,2.163c-0.005,0.019-0.011,0.035-0.015,0.054
		c-0.071,0.338-0.123,0.681-0.164,1.028c-0.006,0.05-0.018,0.099-0.022,0.148c-0.041,0.395-0.063,0.795-0.063,1.2h2.036h7.094
		c0-0.162,0.018-0.321,0.049-0.475l-6.651-3.153c0.1-0.229,0.352-0.757,0.468-0.978l6.587,3.234
		c0.032-0.042,0.068-0.083,0.103-0.124l-4.737-5.606c0.186-0.166,0.623-0.525,0.821-0.677l4.593,5.731
		c0.054-0.029,0.104-0.063,0.16-0.087l-1.782-7.131c0.239-0.064,0.8-0.189,1.047-0.237l1.602,7.173c0.027,0,0.053-0.008,0.08-0.008
		s0.053,0.008,0.08,0.008l1.615-7.169c0.246,0.046,0.738,0.155,0.978,0.221l-1.731,7.141c0.063,0.027,0.119,0.064,0.178,0.098
		l4.588-5.733c0.198,0.151,0.604,0.485,0.79,0.651l-4.705,5.638c0.03,0.036,0.063,0.071,0.091,0.11l6.596-3.222
		c0.116,0.22,0.368,0.728,0.468,0.957l-6.659,3.157c0.032,0.155,0.051,0.316,0.051,0.48h7.094h2.036
		C555.728,282.177,555.703,281.768,555.66,281.364"/>
	<path clip-path="url(#SVGID_2_)" d="M609.708,281.364c-0.013-0.115-0.036-0.227-0.052-0.341c-0.04-0.288-0.082-0.575-0.143-0.855
		c-0.025-0.117-0.061-0.232-0.09-0.35c-0.068-0.274-0.141-0.547-0.229-0.813c-0.034-0.104-0.074-0.203-0.111-0.306
		c-0.101-0.276-0.207-0.549-0.327-0.814c-0.037-0.083-0.078-0.164-0.117-0.245c-0.136-0.283-0.281-0.56-0.438-0.829
		c-0.035-0.059-0.071-0.116-0.106-0.175c-0.176-0.288-0.364-0.567-0.563-0.839c-0.026-0.036-0.054-0.072-0.081-0.108
		c-0.22-0.29-0.451-0.568-0.696-0.836c-0.015-0.016-0.028-0.031-0.043-0.047c-0.434-0.468-0.904-0.899-1.41-1.289
		c-0.296-0.229-0.604-0.443-0.922-0.643c-0.003-0.002-0.007-0.004-0.01-0.006c-0.317-0.198-0.645-0.381-0.981-0.548
		c-0.001,0-0.002-0.001-0.003-0.001c-1.214-0.601-2.545-1.003-3.955-1.141c-0.369-0.037-0.743-0.057-1.122-0.057
		s-0.753,0.02-1.122,0.057c-1.411,0.138-2.742,0.54-3.957,1.141c0,0.001,0,0.001-0.001,0.001c-0.337,0.167-0.666,0.35-0.982,0.548
		l-0.009,0.006c-0.318,0.199-0.626,0.413-0.924,0.643c-0.196,0.152-0.389,0.311-0.576,0.476c-0.53,0.467-1.017,0.98-1.452,1.537
		l-0.013,0.015c-0.213,0.273-0.416,0.556-0.604,0.849c-0.006,0.009-0.011,0.018-0.016,0.026c-0.321,0.501-0.607,1.026-0.849,1.576
		v0.001c-0.302,0.688-0.538,1.412-0.7,2.163c-0.004,0.019-0.01,0.035-0.014,0.054c-0.071,0.338-0.123,0.681-0.164,1.028
		c-0.006,0.05-0.018,0.099-0.022,0.148c-0.041,0.395-0.063,0.795-0.063,1.2h2.036h7.094c0-0.162,0.017-0.321,0.049-0.475
		l-6.651-3.153c0.099-0.229,0.351-0.757,0.467-0.978l6.588,3.234c0.031-0.042,0.067-0.083,0.103-0.124l-4.737-5.606
		c0.186-0.166,0.622-0.525,0.821-0.677l4.592,5.731c0.054-0.029,0.105-0.063,0.161-0.087l-1.783-7.131
		c0.239-0.064,0.801-0.189,1.047-0.237l1.602,7.173c0.027,0,0.054-0.008,0.081-0.008s0.053,0.008,0.08,0.008l1.615-7.169
		c0.246,0.046,0.738,0.155,0.978,0.221l-1.731,7.141c0.062,0.027,0.118,0.064,0.178,0.098l4.587-5.733
		c0.199,0.151,0.604,0.485,0.791,0.651l-4.705,5.638c0.03,0.036,0.063,0.071,0.091,0.11l6.595-3.222
		c0.116,0.22,0.369,0.728,0.469,0.957l-6.659,3.157c0.032,0.155,0.05,0.316,0.05,0.48h7.095h2.036
		C609.775,282.177,609.751,281.768,609.708,281.364"/>
	<path clip-path="url(#SVGID_2_)" d="M663.75,281.364c-0.013-0.115-0.036-0.227-0.053-0.341c-0.039-0.288-0.081-0.575-0.142-0.855
		c-0.025-0.117-0.061-0.232-0.09-0.35c-0.069-0.274-0.141-0.547-0.229-0.813c-0.034-0.104-0.074-0.203-0.112-0.306
		c-0.1-0.276-0.206-0.549-0.326-0.814c-0.037-0.083-0.078-0.164-0.117-0.245c-0.136-0.283-0.281-0.56-0.439-0.829
		c-0.034-0.059-0.07-0.116-0.105-0.175c-0.176-0.288-0.363-0.567-0.563-0.839c-0.026-0.036-0.054-0.072-0.081-0.108
		c-0.219-0.29-0.451-0.568-0.696-0.836c-0.015-0.016-0.028-0.031-0.043-0.047c-0.434-0.468-0.904-0.899-1.41-1.289
		c-0.296-0.229-0.604-0.443-0.922-0.643c-0.003-0.002-0.007-0.004-0.01-0.006c-0.317-0.198-0.645-0.381-0.981-0.548
		c-0.001,0-0.002-0.001-0.003-0.001c-1.214-0.601-2.545-1.003-3.956-1.141c-0.368-0.037-0.742-0.057-1.121-0.057
		s-0.753,0.02-1.122,0.057c-1.411,0.138-2.742,0.54-3.956,1.141c0,0.001-0.002,0.001-0.002,0.001
		c-0.338,0.167-0.666,0.35-0.982,0.548c-0.003,0.002-0.006,0.004-0.01,0.006c-0.318,0.199-0.625,0.413-0.922,0.643
		c-0.198,0.152-0.39,0.311-0.577,0.476c-0.53,0.467-1.017,0.98-1.453,1.537c-0.003,0.005-0.007,0.01-0.011,0.015
		c-0.214,0.273-0.416,0.556-0.604,0.849c-0.006,0.009-0.011,0.018-0.017,0.026c-0.32,0.501-0.606,1.026-0.848,1.576v0.001
		c-0.302,0.688-0.538,1.412-0.699,2.163c-0.005,0.019-0.011,0.035-0.015,0.054c-0.071,0.338-0.124,0.681-0.164,1.028
		c-0.006,0.05-0.018,0.099-0.023,0.148c-0.041,0.395-0.063,0.795-0.063,1.2h2.036h7.094c0-0.162,0.017-0.321,0.049-0.475
		l-6.651-3.153c0.099-0.229,0.351-0.757,0.467-0.978l6.588,3.234c0.031-0.042,0.067-0.083,0.103-0.124l-4.738-5.606
		c0.187-0.166,0.623-0.525,0.822-0.677l4.592,5.731c0.054-0.029,0.104-0.063,0.161-0.087l-1.783-7.131
		c0.239-0.064,0.801-0.189,1.047-0.237l1.602,7.173c0.027,0,0.053-0.008,0.081-0.008c0.027,0,0.053,0.008,0.08,0.008l1.614-7.169
		c0.247,0.046,0.739,0.155,0.978,0.221l-1.73,7.141c0.062,0.027,0.118,0.064,0.178,0.098l4.587-5.733
		c0.199,0.151,0.604,0.485,0.791,0.651l-4.705,5.638c0.03,0.036,0.063,0.071,0.089,0.11l6.597-3.222
		c0.116,0.22,0.369,0.728,0.468,0.957l-6.658,3.157c0.032,0.155,0.05,0.316,0.05,0.48h7.095h2.036
		C663.817,282.177,663.793,281.768,663.75,281.364"/>
	<path clip-path="url(#SVGID_2_)" d="M717.792,281.364c-0.013-0.115-0.037-0.227-0.053-0.341c-0.039-0.288-0.081-0.575-0.142-0.855
		c-0.026-0.117-0.061-0.232-0.09-0.35c-0.068-0.274-0.141-0.547-0.229-0.813c-0.034-0.104-0.075-0.203-0.112-0.306
		c-0.1-0.276-0.206-0.549-0.326-0.814c-0.037-0.083-0.078-0.164-0.118-0.245c-0.136-0.283-0.28-0.56-0.438-0.829
		c-0.034-0.059-0.07-0.116-0.105-0.175c-0.177-0.288-0.364-0.567-0.563-0.839c-0.027-0.036-0.054-0.072-0.081-0.108
		c-0.22-0.29-0.451-0.568-0.696-0.836c-0.015-0.016-0.028-0.031-0.043-0.047c-0.434-0.468-0.904-0.899-1.41-1.289
		c-0.296-0.229-0.604-0.443-0.922-0.643c-0.004-0.002-0.007-0.004-0.01-0.006c-0.317-0.198-0.645-0.381-0.981-0.548
		c-0.001,0-0.002-0.001-0.003-0.001c-1.214-0.601-2.545-1.003-3.956-1.141c-0.369-0.037-0.743-0.057-1.122-0.057
		c-0.378,0-0.752,0.02-1.121,0.057c-1.411,0.138-2.742,0.54-3.957,1.141c0,0.001-0.001,0.001-0.001,0.001
		c-0.338,0.167-0.666,0.35-0.982,0.548c-0.003,0.002-0.006,0.004-0.01,0.006c-0.318,0.199-0.626,0.413-0.923,0.643
		c-0.197,0.152-0.389,0.311-0.576,0.476c-0.53,0.467-1.017,0.98-1.453,1.537c-0.004,0.005-0.007,0.01-0.012,0.015
		c-0.213,0.273-0.416,0.556-0.604,0.849c-0.006,0.009-0.011,0.018-0.017,0.026c-0.32,0.501-0.606,1.026-0.848,1.576v0.001
		c-0.302,0.688-0.538,1.412-0.701,2.163c-0.004,0.019-0.01,0.035-0.014,0.054c-0.07,0.338-0.123,0.681-0.163,1.028
		c-0.007,0.05-0.018,0.099-0.023,0.148c-0.041,0.395-0.063,0.795-0.063,1.2h2.036h7.095c0-0.162,0.017-0.321,0.048-0.475
		l-6.65-3.153c0.099-0.229,0.351-0.757,0.467-0.978l6.587,3.234c0.032-0.042,0.068-0.083,0.103-0.124l-4.737-5.606
		c0.187-0.166,0.623-0.525,0.821-0.677l4.593,5.731c0.054-0.029,0.104-0.063,0.161-0.087l-1.783-7.131
		c0.239-0.064,0.801-0.189,1.047-0.237l1.602,7.173c0.027,0,0.053-0.008,0.08-0.008c0.028,0,0.054,0.008,0.081,0.008l1.614-7.169
		c0.247,0.046,0.739,0.155,0.979,0.221l-1.732,7.141c0.063,0.027,0.119,0.064,0.179,0.098l4.587-5.733
		c0.199,0.151,0.604,0.485,0.791,0.651l-4.705,5.638c0.03,0.036,0.063,0.071,0.09,0.11l6.596-3.222
		c0.116,0.22,0.369,0.728,0.468,0.957l-6.658,3.157c0.032,0.155,0.05,0.316,0.05,0.48h7.095h2.036
		C717.859,282.177,717.835,281.768,717.792,281.364"/>
	<path clip-path="url(#SVGID_2_)" d="M789.997,281.364c-0.013-0.115-0.036-0.227-0.053-0.341c-0.039-0.288-0.081-0.575-0.142-0.855
		c-0.026-0.117-0.061-0.232-0.09-0.35c-0.068-0.274-0.141-0.547-0.229-0.813c-0.034-0.104-0.075-0.203-0.112-0.306
		c-0.101-0.276-0.206-0.549-0.326-0.814c-0.037-0.083-0.078-0.164-0.117-0.245c-0.136-0.283-0.282-0.56-0.439-0.829
		c-0.034-0.059-0.07-0.116-0.105-0.175c-0.176-0.288-0.364-0.567-0.563-0.839c-0.026-0.036-0.054-0.072-0.081-0.108
		c-0.22-0.29-0.451-0.568-0.696-0.836c-0.015-0.016-0.028-0.031-0.043-0.047c-0.434-0.468-0.904-0.899-1.41-1.289
		c-0.296-0.229-0.604-0.443-0.922-0.643c-0.004-0.002-0.007-0.004-0.01-0.006c-0.317-0.198-0.645-0.381-0.981-0.548
		c-0.001,0-0.002-0.001-0.003-0.001c-1.214-0.601-2.545-1.003-3.956-1.141c-0.368-0.037-0.743-0.057-1.121-0.057
		c-0.379,0-0.753,0.02-1.122,0.057c-1.412,0.138-2.742,0.54-3.957,1.141c0,0.001-0.001,0.001-0.001,0.001
		c-0.338,0.167-0.666,0.35-0.982,0.548c-0.003,0.002-0.006,0.004-0.01,0.006c-0.318,0.199-0.626,0.413-0.923,0.643
		c-0.197,0.152-0.389,0.311-0.576,0.476c-0.53,0.467-1.017,0.98-1.453,1.537c-0.004,0.005-0.007,0.01-0.012,0.015
		c-0.213,0.273-0.416,0.556-0.604,0.849c-0.006,0.009-0.011,0.018-0.017,0.026c-0.32,0.501-0.606,1.026-0.848,1.576v0.001
		c-0.302,0.688-0.538,1.412-0.7,2.163c-0.004,0.019-0.011,0.035-0.015,0.054c-0.07,0.338-0.123,0.681-0.163,1.028
		c-0.006,0.05-0.018,0.099-0.023,0.148c-0.041,0.395-0.063,0.795-0.063,1.2h2.037h7.094c0-0.162,0.017-0.321,0.048-0.475
		l-6.65-3.153c0.099-0.229,0.351-0.757,0.467-0.978l6.588,3.234c0.031-0.042,0.067-0.083,0.102-0.124l-4.737-5.606
		c0.187-0.166,0.623-0.525,0.821-0.677l4.593,5.731c0.054-0.029,0.104-0.063,0.161-0.087l-1.783-7.131
		c0.238-0.064,0.801-0.189,1.047-0.237l1.602,7.173c0.027,0,0.053-0.008,0.081-0.008c0.027,0,0.053,0.008,0.08,0.008l1.614-7.169
		c0.247,0.046,0.739,0.155,0.979,0.221l-1.732,7.141c0.063,0.027,0.119,0.064,0.179,0.098l4.587-5.733
		c0.199,0.151,0.604,0.485,0.791,0.651l-4.705,5.638c0.03,0.036,0.063,0.071,0.09,0.11l6.596-3.222
		c0.116,0.22,0.369,0.728,0.468,0.957l-6.658,3.157c0.032,0.155,0.05,0.316,0.05,0.48h7.095h2.036
		C790.064,282.177,790.04,281.768,789.997,281.364"/>
	<path clip-path="url(#SVGID_2_)" d="M838.343,281.364c-0.012-0.115-0.036-0.227-0.052-0.341c-0.039-0.288-0.082-0.575-0.143-0.855
		c-0.025-0.117-0.061-0.232-0.09-0.35c-0.068-0.274-0.141-0.547-0.228-0.813c-0.034-0.104-0.075-0.203-0.112-0.306
		c-0.1-0.276-0.206-0.549-0.326-0.814c-0.038-0.083-0.079-0.164-0.118-0.245c-0.136-0.283-0.28-0.56-0.438-0.829
		c-0.034-0.059-0.07-0.116-0.106-0.175c-0.176-0.288-0.364-0.567-0.563-0.839c-0.027-0.036-0.054-0.072-0.081-0.108
		c-0.221-0.29-0.451-0.568-0.697-0.836c-0.014-0.016-0.027-0.031-0.042-0.047c-0.434-0.468-0.904-0.899-1.41-1.289
		c-0.297-0.229-0.604-0.443-0.923-0.643l-0.009-0.006c-0.317-0.198-0.645-0.381-0.982-0.548c-0.001,0-0.001-0.001-0.002-0.001
		c-1.215-0.601-2.545-1.003-3.956-1.141c-0.369-0.037-0.743-0.057-1.122-0.057s-0.753,0.02-1.122,0.057
		c-1.412,0.138-2.741,0.54-3.957,1.141c0,0.001,0,0.001-0.001,0.001c-0.337,0.167-0.665,0.35-0.981,0.548
		c-0.004,0.002-0.007,0.004-0.01,0.006c-0.318,0.199-0.626,0.413-0.924,0.643c-0.196,0.152-0.389,0.311-0.575,0.476h-0.001
		c-0.529,0.467-1.016,0.98-1.452,1.537c-0.004,0.005-0.008,0.01-0.011,0.015c-0.214,0.273-0.418,0.556-0.605,0.849
		c-0.005,0.009-0.01,0.018-0.016,0.026c-0.321,0.501-0.607,1.026-0.849,1.576v0.001c-0.302,0.688-0.538,1.412-0.7,2.163
		c-0.004,0.019-0.01,0.035-0.014,0.054c-0.071,0.338-0.123,0.681-0.164,1.028c-0.006,0.05-0.018,0.099-0.022,0.148
		c-0.041,0.395-0.063,0.795-0.063,1.2h2.036h7.094c0-0.162,0.018-0.321,0.049-0.475l-6.651-3.153c0.1-0.229,0.352-0.757,0.468-0.978
		l6.587,3.234c0.032-0.042,0.068-0.083,0.102-0.124l-4.736-5.606c0.187-0.166,0.623-0.525,0.82-0.677l4.594,5.731
		c0.054-0.029,0.104-0.063,0.16-0.087l-1.782-7.131c0.239-0.064,0.801-0.189,1.047-0.237l1.602,7.173
		c0.027,0,0.053-0.008,0.08-0.008s0.053,0.008,0.08,0.008l1.615-7.169c0.246,0.046,0.738,0.155,0.978,0.221l-1.731,7.141
		c0.063,0.027,0.119,0.064,0.179,0.098l4.587-5.733c0.198,0.151,0.604,0.485,0.79,0.651l-4.704,5.638
		c0.029,0.036,0.062,0.071,0.089,0.11l6.597-3.222c0.116,0.22,0.368,0.728,0.468,0.957l-6.659,3.157
		c0.033,0.155,0.05,0.316,0.05,0.48h7.095h2.036C838.41,282.177,838.386,281.768,838.343,281.364"/>
	<polygon clip-path="url(#SVGID_2_)" points="436.242,16.2 500.584,16.2 436.242,58.5 	"/>
	<rect x="419.532" y="267.191" clip-path="url(#SVGID_2_)" width="9.375" height="11.625"/>
	<rect x="419.532" y="280.691" clip-path="url(#SVGID_2_)" width="9.375" height="9.375"/>
	<rect x="419.532" y="291.941" clip-path="url(#SVGID_2_)" width="9.375" height="9.375"/>
	<rect x="419.532" y="303.191" clip-path="url(#SVGID_2_)" width="9.375" height="9.375"/>
	<rect x="432.857" y="267.191" clip-path="url(#SVGID_2_)" width="9.376" height="11.625"/>
	<rect x="432.857" y="280.691" clip-path="url(#SVGID_2_)" width="9.376" height="9.375"/>
	<rect x="432.857" y="291.941" clip-path="url(#SVGID_2_)" width="9.376" height="9.375"/>
	<rect x="432.857" y="303.191" clip-path="url(#SVGID_2_)" width="9.376" height="9.375"/>
	<path clip-path="url(#SVGID_2_)" d="M448.254,254.432v-4.865h-34.742v4.865h-2.162v74.153h5.984l0.007-63.835h27.084l-0.001,63.835
		h5.992v-74.153H448.254z M446.633,261.875h-31.5v-2.148h31.5V261.875z"/>
	<path clip-path="url(#SVGID_2_)" d="M394.72,254.432v-4.865h-34.741v4.865h-2.163v74.153h5.991l0.001-63.835h27.083l0.001,63.835
		h5.99v-74.153H394.72z M393.1,261.875h-31.5v-2.148h31.5V261.875z"/>
	<path clip-path="url(#SVGID_2_)" d="M501.504,254.432v-4.865h-34.175v4.865h-2.445v74.153h5.99l0.001-63.835h27.083l-0.027,63.835
		h6.019v-74.153H501.504z M500.166,261.875h-31.5v-2.148h31.5V261.875z"/>
	<path clip-path="url(#SVGID_2_)" d="M658.73,149.666l-18.787-4.881v-3.353l-10.031-5.682l-10.031,5.682v3.353h-62.543v-3.353
		l-10.031-5.682l-10.031,5.682v3.353h-21.76l-0.718,2.813v2.068V160.5h132.786h97.375v-10.834H658.73z M554.369,156.035h-14.125
		V143.33l7.063-4.001l7.063,4.001V156.035z M636.975,156.035H622.85V143.33l7.063-4.001l7.063,4.001V156.035z"/>
	<rect x="624.954" y="148.058" clip-path="url(#SVGID_2_)" width="4.033" height="6.484"/>
	<rect x="630.837" y="148.058" clip-path="url(#SVGID_2_)" width="4.033" height="6.484"/>
	<path clip-path="url(#SVGID_2_)" d="M630.837,146.875h4.033c0-2.421-1.738-4.431-4.033-4.865V146.875z"/>
	<path clip-path="url(#SVGID_2_)" d="M628.987,142.01c-2.296,0.434-4.033,2.444-4.033,4.865h4.033V142.01z"/>
	<rect x="542.349" y="148.058" clip-path="url(#SVGID_2_)" width="4.033" height="6.484"/>
	<rect x="548.232" y="148.058" clip-path="url(#SVGID_2_)" width="4.032" height="6.484"/>
	<path clip-path="url(#SVGID_2_)" d="M548.231,146.875h4.033c0-2.421-1.737-4.431-4.033-4.865V146.875z"/>
	<path clip-path="url(#SVGID_2_)" d="M546.382,142.01c-2.295,0.434-4.033,2.444-4.033,4.865h4.033V142.01z"/>
	<rect x="110.199" y="162.484" clip-path="url(#SVGID_2_)" width="238.334" height="3.307"/>
	<rect x="113.557" y="167.775" clip-path="url(#SVGID_2_)" width="234.976" height="7.237"/>
	<path clip-path="url(#SVGID_2_)" d="M140.814,286.354c0,10.086,0,33.913,0,33.913l29.418,0.001v-33.914h24.624
		c0,10.086,0,33.913,0,33.913l29.418,0.001v-33.914h24.623c0.001,10.086,0.001,33.913,0.001,33.913l29.418,0.001v-33.914h24.623
		c0,10.086,0.001,33.913,0.001,33.913l29.418,0.001v-33.914h11.305v41.944H129.58v-41.944H140.814z"/>
	<path clip-path="url(#SVGID_2_)" d="M131.281,263.51v-7.402h212.382v26.485h-11.304c0-8.123-6.586-14.709-14.71-14.709
		s-14.709,6.586-14.709,14.709h-24.623c0-8.123-6.586-14.709-14.71-14.709c-8.123,0-14.709,6.586-14.709,14.709h-24.623
		c0-8.123-6.586-14.709-14.71-14.709c-8.123,0-14.709,6.586-14.709,14.709h-24.623c0-8.123-6.586-14.709-14.71-14.709
		c-8.123,0-14.709,6.586-14.709,14.709H129.58V263.51H131.281z"/>
	<path clip-path="url(#SVGID_2_)" d="M317.648,282.593"/>
	<rect x="318.937" y="284.523" clip-path="url(#SVGID_2_)" width="10.186" height="9.477"/>
	<rect x="306.175" y="284.523" clip-path="url(#SVGID_2_)" width="10.186" height="9.477"/>
	<rect x="318.937" y="296.175" clip-path="url(#SVGID_2_)" width="10.186" height="9.478"/>
	<rect x="306.175" y="296.175" clip-path="url(#SVGID_2_)" width="10.186" height="9.478"/>
	<rect x="318.937" y="307.828" clip-path="url(#SVGID_2_)" width="10.186" height="9.478"/>
	<rect x="306.175" y="307.828" clip-path="url(#SVGID_2_)" width="10.186" height="9.478"/>
	<path clip-path="url(#SVGID_2_)" d="M263.606,282.593"/>
	<rect x="264.895" y="284.523" clip-path="url(#SVGID_2_)" width="10.186" height="9.477"/>
	<rect x="252.133" y="284.523" clip-path="url(#SVGID_2_)" width="10.186" height="9.477"/>
	<rect x="264.895" y="296.175" clip-path="url(#SVGID_2_)" width="10.186" height="9.478"/>
	<rect x="252.133" y="296.175" clip-path="url(#SVGID_2_)" width="10.186" height="9.478"/>
	<rect x="264.895" y="307.828" clip-path="url(#SVGID_2_)" width="10.186" height="9.478"/>
	<rect x="252.133" y="307.828" clip-path="url(#SVGID_2_)" width="10.186" height="9.478"/>
	<path clip-path="url(#SVGID_2_)" d="M209.565,282.593"/>
	<rect x="210.853" y="284.523" clip-path="url(#SVGID_2_)" width="10.186" height="9.477"/>
	<rect x="198.091" y="284.523" clip-path="url(#SVGID_2_)" width="10.186" height="9.477"/>
	<rect x="210.853" y="296.175" clip-path="url(#SVGID_2_)" width="10.186" height="9.478"/>
	<rect x="198.091" y="296.175" clip-path="url(#SVGID_2_)" width="10.186" height="9.478"/>
	<rect x="210.853" y="307.828" clip-path="url(#SVGID_2_)" width="10.186" height="9.478"/>
	<rect x="198.091" y="307.828" clip-path="url(#SVGID_2_)" width="10.186" height="9.478"/>
	<path clip-path="url(#SVGID_2_)" d="M155.523,282.593"/>
	<rect x="156.811" y="284.523" clip-path="url(#SVGID_2_)" width="10.186" height="9.477"/>
	<rect x="144.049" y="284.523" clip-path="url(#SVGID_2_)" width="10.185" height="9.477"/>
	<rect x="156.811" y="296.175" clip-path="url(#SVGID_2_)" width="10.186" height="9.478"/>
	<rect x="144.049" y="296.175" clip-path="url(#SVGID_2_)" width="10.185" height="9.478"/>
	<rect x="156.811" y="307.828" clip-path="url(#SVGID_2_)" width="10.186" height="9.478"/>
	<rect x="144.049" y="307.828" clip-path="url(#SVGID_2_)" width="10.185" height="9.478"/>
	<path clip-path="url(#SVGID_2_)" d="M83.318,282.593"/>
	<rect x="84.605" y="284.523" clip-path="url(#SVGID_2_)" width="10.186" height="9.477"/>
	<rect x="71.844" y="284.523" clip-path="url(#SVGID_2_)" width="10.186" height="9.477"/>
	<rect x="84.605" y="296.175" clip-path="url(#SVGID_2_)" width="10.186" height="9.478"/>
	<rect x="71.844" y="296.175" clip-path="url(#SVGID_2_)" width="10.186" height="9.478"/>
	<rect x="84.605" y="307.828" clip-path="url(#SVGID_2_)" width="10.186" height="9.478"/>
	<rect x="71.844" y="307.828" clip-path="url(#SVGID_2_)" width="10.186" height="9.478"/>
	<path clip-path="url(#SVGID_2_)" d="M20.262,286.354c0,10.086,0.001,33.913,0.001,33.913l29.418,0.001v-33.914h18.928
		c0,10.086,0,33.913,0,33.913l29.418,0.001v-33.914h16.636v41.944H8.032v-41.944H20.262z"/>
	<path clip-path="url(#SVGID_2_)" d="M112.962,263.51v-7.402H8.031v23.177H6.497v3.308h1.535h9.424h2.807
		c0-8.123,6.585-14.709,14.709-14.709s14.71,6.586,14.71,14.709h18.927c0-8.123,6.586-14.709,14.709-14.709
		c8.124,0,14.71,6.586,14.71,14.709h16.636V263.51H112.962z"/>
	<path clip-path="url(#SVGID_2_)" d="M34.972,282.593"/>
	<rect x="36.259" y="284.523" clip-path="url(#SVGID_2_)" width="10.186" height="9.477"/>
	<rect x="23.498" y="284.523" clip-path="url(#SVGID_2_)" width="10.186" height="9.477"/>
	<rect x="36.259" y="296.175" clip-path="url(#SVGID_2_)" width="10.186" height="9.478"/>
	<rect x="23.498" y="296.175" clip-path="url(#SVGID_2_)" width="10.186" height="9.478"/>
	<rect x="36.259" y="307.828" clip-path="url(#SVGID_2_)" width="10.186" height="9.478"/>
	<rect x="23.498" y="307.828" clip-path="url(#SVGID_2_)" width="10.186" height="9.478"/>
	<rect x="322.188" y="195.75" clip-path="url(#SVGID_2_)" width="9.125" height="10.03"/>
	<rect x="322.188" y="208.018" clip-path="url(#SVGID_2_)" width="9.125" height="10.03"/>
	<rect x="322.188" y="220.286" clip-path="url(#SVGID_2_)" width="9.125" height="10.03"/>
	<rect x="322.188" y="232.554" clip-path="url(#SVGID_2_)" width="9.125" height="10.03"/>
	<rect x="310.438" y="195.75" clip-path="url(#SVGID_2_)" width="9.125" height="10.03"/>
	<rect x="310.438" y="208.018" clip-path="url(#SVGID_2_)" width="9.125" height="10.03"/>
	<rect x="310.438" y="220.286" clip-path="url(#SVGID_2_)" width="9.125" height="10.03"/>
	<rect x="310.438" y="232.554" clip-path="url(#SVGID_2_)" width="9.125" height="10.03"/>
	<rect x="267.105" y="195.75" clip-path="url(#SVGID_2_)" width="9.125" height="10.03"/>
	<rect x="267.105" y="208.018" clip-path="url(#SVGID_2_)" width="9.125" height="10.03"/>
	<rect x="267.105" y="220.286" clip-path="url(#SVGID_2_)" width="9.125" height="10.03"/>
	<rect x="267.105" y="232.554" clip-path="url(#SVGID_2_)" width="9.125" height="10.03"/>
	<rect x="255.355" y="195.75" clip-path="url(#SVGID_2_)" width="9.125" height="10.03"/>
	<rect x="255.355" y="208.018" clip-path="url(#SVGID_2_)" width="9.125" height="10.03"/>
	<rect x="255.355" y="220.286" clip-path="url(#SVGID_2_)" width="9.125" height="10.03"/>
	<rect x="255.355" y="232.554" clip-path="url(#SVGID_2_)" width="9.125" height="10.03"/>
	<rect x="212.023" y="195.75" clip-path="url(#SVGID_2_)" width="9.125" height="10.03"/>
	<rect x="212.023" y="208.018" clip-path="url(#SVGID_2_)" width="9.125" height="10.03"/>
	<rect x="212.023" y="220.286" clip-path="url(#SVGID_2_)" width="9.125" height="10.03"/>
	<rect x="212.023" y="232.554" clip-path="url(#SVGID_2_)" width="9.125" height="10.03"/>
	<rect x="200.273" y="195.75" clip-path="url(#SVGID_2_)" width="9.125" height="10.03"/>
	<rect x="200.273" y="208.018" clip-path="url(#SVGID_2_)" width="9.125" height="10.03"/>
	<rect x="200.273" y="220.286" clip-path="url(#SVGID_2_)" width="9.125" height="10.03"/>
	<rect x="200.273" y="232.554" clip-path="url(#SVGID_2_)" width="9.125" height="10.03"/>
	<rect x="155.523" y="195.75" clip-path="url(#SVGID_2_)" width="9.125" height="10.03"/>
	<rect x="155.523" y="208.018" clip-path="url(#SVGID_2_)" width="9.125" height="10.03"/>
	<rect x="155.523" y="220.286" clip-path="url(#SVGID_2_)" width="9.125" height="10.03"/>
	<rect x="155.523" y="232.554" clip-path="url(#SVGID_2_)" width="9.125" height="10.03"/>
	<rect x="143.773" y="195.75" clip-path="url(#SVGID_2_)" width="9.125" height="10.03"/>
	<rect x="143.773" y="208.018" clip-path="url(#SVGID_2_)" width="9.125" height="10.03"/>
	<rect x="143.773" y="220.286" clip-path="url(#SVGID_2_)" width="9.125" height="10.03"/>
	<rect x="143.773" y="232.554" clip-path="url(#SVGID_2_)" width="9.125" height="10.03"/>
	<rect x="115.347" y="177.347" clip-path="url(#SVGID_2_)" width="11.724" height="5.236"/>
	<rect x="116.955" y="263.511" clip-path="url(#SVGID_2_)" width="10.115" height="64.787"/>
	<rect x="115.254" y="256.109" clip-path="url(#SVGID_2_)" width="13.517" height="5.235"/>
	<path clip-path="url(#SVGID_2_)" d="M348.2,177.348v35.685h-6.453v22.799l-2.917,0.001v6h2.744v7.667l-211.994,0.067v-72.219H348.2
		z M307.424,245.101h26.833v-52.085h-26.833V245.101z M303.861,189.433h34.029v-2.609h-34.029V189.433z M252.365,245.101h26.833
		v-52.085h-26.833V245.101z M248.778,189.433h34.03v-2.609h-34.03V189.433z M197.306,245.101h26.833v-52.085h-26.833V245.101z
		 M193.696,189.433h34.03v-2.609h-34.03V189.433z M140.83,245.101h26.833v-52.085H140.83V245.101z M137.196,189.433h34.03v-2.609
		h-34.03V189.433z"/>
	<path clip-path="url(#SVGID_2_)" d="M10.072,250.817v-4.208h106.883v2.958h10.115V184.75h-10.115v47.758H8.088v18.309H3.5v3.307
		h338.074v-3.307H10.072z M10.072,240.563h106.883v4.062H10.072V240.563z M116.955,238.578H10.072v-4.086h106.883V238.578z"/>
	<path clip-path="url(#SVGID_2_)" d="M306.254,281.364c0.012-0.115,0.036-0.227,0.052-0.341c0.039-0.288,0.082-0.575,0.142-0.855
		c0.026-0.117,0.061-0.232,0.09-0.35c0.068-0.274,0.14-0.547,0.228-0.813c0.034-0.104,0.075-0.203,0.112-0.306
		c0.1-0.276,0.206-0.549,0.326-0.814c0.038-0.083,0.078-0.164,0.118-0.245c0.136-0.283,0.281-0.56,0.439-0.829
		c0.034-0.059,0.07-0.116,0.106-0.175c0.176-0.288,0.364-0.567,0.563-0.839c0.027-0.036,0.053-0.072,0.081-0.108
		c0.22-0.29,0.451-0.568,0.697-0.836c0.014-0.016,0.027-0.031,0.042-0.047c0.434-0.468,0.904-0.899,1.41-1.289
		c0.297-0.229,0.604-0.443,0.923-0.643l0.009-0.006c0.317-0.198,0.644-0.381,0.981-0.548c0.001,0,0.002-0.001,0.003-0.001
		c1.215-0.601,2.545-1.003,3.956-1.141c0.369-0.037,0.743-0.057,1.122-0.057s0.753,0.02,1.122,0.057
		c1.412,0.138,2.742,0.54,3.957,1.141c0,0.001,0,0.001,0.001,0.001c0.337,0.167,0.665,0.35,0.982,0.548
		c0.003,0.002,0.007,0.004,0.01,0.006c0.318,0.199,0.626,0.413,0.922,0.643c0.198,0.152,0.39,0.311,0.577,0.476
		c0.53,0.467,1.016,0.98,1.453,1.537c0.004,0.005,0.007,0.01,0.011,0.015c0.213,0.273,0.416,0.556,0.605,0.849
		c0.005,0.009,0.01,0.018,0.016,0.026c0.321,0.501,0.606,1.026,0.847,1.576v0.001c0.302,0.688,0.538,1.412,0.701,2.163
		c0.004,0.019,0.01,0.035,0.014,0.054c0.071,0.338,0.123,0.681,0.164,1.028c0.006,0.05,0.017,0.099,0.023,0.148
		c0.041,0.395,0.063,0.795,0.063,1.2h-2.036h-7.094c0-0.162-0.017-0.321-0.049-0.475l6.652-3.153
		c-0.1-0.229-0.352-0.757-0.468-0.978l-6.587,3.234c-0.032-0.042-0.068-0.083-0.102-0.124l4.737-5.606
		c-0.187-0.166-0.623-0.525-0.821-0.677l-4.593,5.731c-0.054-0.029-0.105-0.063-0.16-0.087l1.782-7.131
		c-0.239-0.064-0.801-0.189-1.047-0.237l-1.602,7.173c-0.027,0-0.052-0.008-0.08-0.008c-0.027,0-0.053,0.008-0.08,0.008
		l-1.615-7.169c-0.246,0.046-0.739,0.155-0.978,0.221l1.732,7.141c-0.063,0.027-0.119,0.064-0.179,0.098l-4.587-5.733
		c-0.198,0.151-0.604,0.485-0.791,0.651l4.705,5.638c-0.03,0.036-0.061,0.071-0.089,0.11l-6.596-3.222
		c-0.116,0.22-0.369,0.728-0.468,0.957l6.659,3.157c-0.033,0.155-0.05,0.316-0.05,0.48h-7.094h-2.036
		C306.187,282.177,306.211,281.768,306.254,281.364"/>
	<path clip-path="url(#SVGID_2_)" d="M252.206,281.364c0.012-0.115,0.036-0.227,0.052-0.341c0.039-0.288,0.082-0.575,0.142-0.855
		c0.026-0.117,0.061-0.232,0.09-0.35c0.068-0.274,0.14-0.547,0.228-0.813c0.034-0.104,0.075-0.203,0.112-0.306
		c0.1-0.276,0.207-0.549,0.327-0.814c0.037-0.083,0.078-0.164,0.117-0.245c0.136-0.283,0.281-0.56,0.439-0.829
		c0.035-0.059,0.071-0.116,0.106-0.175c0.176-0.288,0.364-0.567,0.563-0.839c0.026-0.036,0.052-0.072,0.08-0.108
		c0.22-0.29,0.452-0.568,0.697-0.836c0.014-0.016,0.028-0.031,0.042-0.047c0.434-0.468,0.904-0.899,1.41-1.289
		c0.297-0.229,0.605-0.443,0.923-0.643c0.003-0.002,0.006-0.004,0.01-0.006c0.317-0.198,0.644-0.381,0.981-0.548
		c0.001,0,0.002-0.001,0.002-0.001c1.215-0.601,2.545-1.003,3.956-1.141c0.369-0.037,0.743-0.057,1.122-0.057
		c0.379,0,0.753,0.02,1.122,0.057c1.412,0.138,2.742,0.54,3.957,1.141c0,0.001,0,0.001,0.001,0.001
		c0.337,0.167,0.665,0.35,0.982,0.548c0.004,0.002,0.007,0.004,0.01,0.006c0.318,0.199,0.626,0.413,0.923,0.643
		c0.197,0.152,0.389,0.311,0.577,0.476c0.529,0.467,1.016,0.98,1.452,1.537l0.012,0.015c0.213,0.273,0.416,0.556,0.604,0.849
		c0.006,0.009,0.011,0.018,0.016,0.026c0.321,0.501,0.607,1.026,0.848,1.576v0.001c0.302,0.688,0.538,1.412,0.7,2.163
		c0.004,0.019,0.01,0.035,0.014,0.054c0.071,0.338,0.123,0.681,0.164,1.028c0.006,0.05,0.018,0.099,0.023,0.148
		c0.041,0.395,0.063,0.795,0.063,1.2h-2.036h-7.094c0-0.162-0.017-0.321-0.049-0.475l6.652-3.153
		c-0.1-0.229-0.352-0.757-0.468-0.978l-6.587,3.234c-0.032-0.042-0.068-0.083-0.102-0.124l4.737-5.606
		c-0.186-0.166-0.623-0.525-0.821-0.677l-4.593,5.731c-0.054-0.029-0.105-0.063-0.16-0.087l1.782-7.131
		c-0.239-0.064-0.8-0.189-1.047-0.237l-1.602,7.173c-0.027,0-0.052-0.008-0.08-0.008c-0.027,0-0.052,0.008-0.08,0.008l-1.615-7.169
		c-0.246,0.046-0.738,0.155-0.977,0.221l1.731,7.141c-0.063,0.027-0.119,0.064-0.178,0.098l-4.588-5.733
		c-0.198,0.151-0.604,0.485-0.79,0.651l4.705,5.638c-0.03,0.036-0.062,0.071-0.09,0.11l-6.596-3.222
		c-0.116,0.22-0.368,0.728-0.468,0.957l6.659,3.157c-0.032,0.155-0.05,0.316-0.05,0.48h-7.094h-2.036
		C252.139,282.177,252.163,281.768,252.206,281.364"/>
	<path clip-path="url(#SVGID_2_)" d="M198.164,281.364c0.012-0.115,0.036-0.227,0.052-0.341c0.039-0.288,0.082-0.575,0.142-0.855
		c0.026-0.117,0.061-0.232,0.09-0.35c0.069-0.274,0.141-0.547,0.228-0.813c0.034-0.104,0.075-0.203,0.113-0.306
		c0.099-0.276,0.206-0.549,0.326-0.814c0.037-0.083,0.078-0.164,0.117-0.245c0.136-0.283,0.282-0.56,0.439-0.829
		c0.035-0.059,0.071-0.116,0.106-0.175c0.176-0.288,0.364-0.567,0.563-0.839c0.027-0.036,0.054-0.072,0.081-0.108
		c0.22-0.29,0.451-0.568,0.697-0.836l0.043-0.047c0.433-0.468,0.904-0.899,1.41-1.289c0.296-0.229,0.604-0.443,0.922-0.643
		c0.003-0.002,0.006-0.004,0.009-0.006c0.318-0.198,0.645-0.381,0.982-0.548c0.001,0,0.002-0.001,0.003-0.001
		c1.214-0.601,2.545-1.003,3.956-1.141c0.368-0.037,0.742-0.057,1.121-0.057s0.753,0.02,1.122,0.057
		c1.412,0.138,2.742,0.54,3.957,1.141c0,0.001,0.001,0.001,0.001,0.001c0.338,0.167,0.665,0.35,0.982,0.548
		c0.004,0.002,0.007,0.004,0.01,0.006c0.319,0.199,0.626,0.413,0.923,0.643c0.197,0.152,0.389,0.311,0.576,0.476h0.001
		c0.529,0.467,1.016,0.98,1.452,1.537c0.004,0.005,0.008,0.01,0.011,0.015c0.214,0.273,0.417,0.556,0.605,0.849
		c0.005,0.009,0.01,0.018,0.016,0.026c0.321,0.501,0.607,1.026,0.848,1.576v0.001c0.302,0.688,0.538,1.412,0.7,2.163
		c0.004,0.019,0.01,0.035,0.014,0.054c0.071,0.338,0.124,0.681,0.164,1.028c0.006,0.05,0.018,0.099,0.023,0.148
		c0.041,0.395,0.063,0.795,0.063,1.2h-2.036h-7.094c0-0.162-0.017-0.321-0.049-0.475l6.652-3.153
		c-0.099-0.229-0.351-0.757-0.467-0.978l-6.588,3.234c-0.032-0.042-0.068-0.083-0.102-0.124l4.737-5.606
		c-0.186-0.166-0.623-0.525-0.821-0.677l-4.593,5.731c-0.053-0.029-0.104-0.063-0.16-0.087l1.782-7.131
		c-0.239-0.064-0.8-0.189-1.046-0.237l-1.602,7.173c-0.027,0-0.053-0.008-0.081-0.008c-0.027,0-0.052,0.008-0.08,0.008l-1.614-7.169
		c-0.247,0.046-0.739,0.155-0.979,0.221l1.732,7.141c-0.062,0.027-0.119,0.064-0.178,0.098l-4.587-5.733
		c-0.199,0.151-0.605,0.485-0.791,0.651l4.705,5.638c-0.03,0.036-0.062,0.071-0.09,0.11l-6.596-3.222
		c-0.116,0.22-0.368,0.728-0.467,0.957l6.658,3.157c-0.032,0.155-0.05,0.316-0.05,0.48h-7.094h-2.036
		C198.097,282.177,198.121,281.768,198.164,281.364"/>
	<path clip-path="url(#SVGID_2_)" d="M144.122,281.364c0.013-0.115,0.037-0.227,0.052-0.341c0.04-0.288,0.082-0.575,0.142-0.855
		c0.026-0.117,0.061-0.232,0.09-0.35c0.069-0.274,0.141-0.547,0.228-0.813c0.035-0.104,0.075-0.203,0.113-0.306
		c0.099-0.276,0.206-0.549,0.326-0.814c0.037-0.083,0.078-0.164,0.117-0.245c0.137-0.283,0.282-0.56,0.439-0.829
		c0.035-0.059,0.071-0.116,0.106-0.175c0.177-0.288,0.364-0.567,0.564-0.839c0.027-0.036,0.053-0.072,0.08-0.108
		c0.22-0.29,0.452-0.568,0.697-0.836c0.015-0.016,0.028-0.031,0.043-0.047c0.434-0.468,0.904-0.899,1.41-1.289
		c0.296-0.229,0.604-0.443,0.922-0.643c0.004-0.002,0.006-0.004,0.01-0.006c0.317-0.198,0.644-0.381,0.981-0.548
		c0.001,0,0.002-0.001,0.003-0.001c1.214-0.601,2.545-1.003,3.956-1.141c0.369-0.037,0.743-0.057,1.122-0.057
		c0.378,0,0.752,0.02,1.121,0.057c1.412,0.138,2.742,0.54,3.957,1.141c0,0.001,0.001,0.001,0.001,0.001
		c0.338,0.167,0.665,0.35,0.982,0.548c0.004,0.002,0.007,0.004,0.01,0.006c0.319,0.199,0.626,0.413,0.923,0.643
		c0.197,0.152,0.389,0.311,0.577,0.476c0.529,0.467,1.016,0.98,1.452,1.537c0.004,0.005,0.008,0.01,0.012,0.015
		c0.213,0.273,0.416,0.556,0.604,0.849c0.006,0.009,0.011,0.018,0.016,0.026c0.321,0.501,0.607,1.026,0.848,1.576v0.001
		c0.302,0.688,0.538,1.412,0.701,2.163c0.004,0.019,0.01,0.035,0.014,0.054c0.07,0.338,0.123,0.681,0.163,1.028
		c0.007,0.05,0.018,0.099,0.023,0.148c0.041,0.395,0.064,0.795,0.064,1.2h-2.036h-7.095c0-0.162-0.016-0.321-0.048-0.475
		l6.651-3.153c-0.099-0.229-0.351-0.757-0.467-0.978l-6.588,3.234c-0.031-0.042-0.068-0.083-0.102-0.124l4.737-5.606
		c-0.186-0.166-0.623-0.525-0.821-0.677l-4.593,5.731c-0.053-0.029-0.104-0.063-0.16-0.087l1.783-7.131
		c-0.24-0.064-0.801-0.189-1.047-0.237l-1.602,7.173c-0.027,0-0.053-0.008-0.08-0.008c-0.028,0-0.053,0.008-0.081,0.008
		l-1.614-7.169c-0.247,0.046-0.739,0.155-0.978,0.221l1.731,7.141c-0.062,0.027-0.119,0.064-0.178,0.098l-4.587-5.733
		c-0.199,0.151-0.605,0.485-0.791,0.651l4.705,5.638c-0.03,0.036-0.062,0.071-0.09,0.11l-6.596-3.222
		c-0.115,0.22-0.368,0.728-0.467,0.957l6.658,3.157c-0.032,0.155-0.05,0.316-0.05,0.48h-7.094h-2.036
		C144.055,282.177,144.079,281.768,144.122,281.364"/>
	<path clip-path="url(#SVGID_2_)" d="M71.917,281.364c0.012-0.115,0.036-0.227,0.052-0.341c0.039-0.288,0.082-0.575,0.142-0.855
		c0.026-0.117,0.061-0.232,0.09-0.35c0.069-0.274,0.141-0.547,0.228-0.813c0.034-0.104,0.075-0.203,0.113-0.306
		c0.099-0.276,0.206-0.549,0.326-0.814c0.037-0.083,0.078-0.164,0.117-0.245c0.136-0.283,0.282-0.56,0.439-0.829
		c0.035-0.059,0.071-0.116,0.106-0.175c0.176-0.288,0.364-0.567,0.563-0.839c0.027-0.036,0.054-0.072,0.081-0.108
		c0.22-0.29,0.452-0.568,0.697-0.836l0.043-0.047c0.433-0.468,0.904-0.899,1.41-1.289c0.296-0.229,0.604-0.443,0.922-0.643
		c0.004-0.002,0.006-0.004,0.009-0.006c0.318-0.198,0.645-0.381,0.982-0.548c0.001,0,0.002-0.001,0.003-0.001
		c1.214-0.601,2.545-1.003,3.956-1.141c0.368-0.037,0.743-0.057,1.121-0.057c0.379,0,0.753,0.02,1.122,0.057
		c1.412,0.138,2.742,0.54,3.957,1.141c0,0.001,0.001,0.001,0.001,0.001c0.338,0.167,0.665,0.35,0.982,0.548
		c0.004,0.002,0.007,0.004,0.01,0.006c0.319,0.199,0.626,0.413,0.923,0.643c0.197,0.152,0.389,0.311,0.576,0.476h0.001
		c0.529,0.467,1.016,0.98,1.452,1.537c0.004,0.005,0.008,0.01,0.011,0.015c0.214,0.273,0.417,0.556,0.605,0.849
		c0.005,0.009,0.01,0.018,0.016,0.026c0.321,0.501,0.607,1.026,0.848,1.576v0.001c0.302,0.688,0.538,1.412,0.7,2.163
		c0.004,0.019,0.011,0.035,0.014,0.054c0.071,0.338,0.124,0.681,0.164,1.028c0.006,0.05,0.018,0.099,0.023,0.148
		c0.041,0.395,0.064,0.795,0.064,1.2h-2.037h-7.094c0-0.162-0.017-0.321-0.049-0.475l6.652-3.153
		c-0.099-0.229-0.351-0.757-0.467-0.978l-6.588,3.234c-0.032-0.042-0.068-0.083-0.102-0.124l4.737-5.606
		c-0.186-0.166-0.623-0.525-0.821-0.677l-4.593,5.731c-0.053-0.029-0.104-0.063-0.16-0.087l1.782-7.131
		c-0.239-0.064-0.8-0.189-1.046-0.237l-1.602,7.173c-0.027,0-0.053-0.008-0.081-0.008c-0.027,0-0.052,0.008-0.08,0.008l-1.614-7.169
		c-0.247,0.046-0.739,0.155-0.979,0.221l1.732,7.141c-0.062,0.027-0.119,0.064-0.178,0.098l-4.587-5.733
		c-0.199,0.151-0.605,0.485-0.791,0.651l4.705,5.638c-0.03,0.036-0.062,0.071-0.09,0.11l-6.596-3.222
		c-0.116,0.22-0.368,0.728-0.467,0.957l6.658,3.157c-0.032,0.155-0.05,0.316-0.05,0.48h-7.094H71.85
		C71.85,282.177,71.874,281.768,71.917,281.364"/>
	<path clip-path="url(#SVGID_2_)" d="M23.571,281.364c0.012-0.115,0.036-0.227,0.052-0.341c0.039-0.288,0.082-0.575,0.142-0.855
		c0.026-0.117,0.061-0.232,0.09-0.35c0.069-0.274,0.141-0.547,0.228-0.813c0.034-0.104,0.075-0.203,0.112-0.306
		c0.1-0.276,0.207-0.549,0.327-0.814c0.037-0.083,0.078-0.164,0.117-0.245c0.136-0.283,0.281-0.56,0.439-0.829
		c0.035-0.059,0.071-0.116,0.106-0.175c0.176-0.288,0.364-0.567,0.563-0.839c0.027-0.036,0.054-0.072,0.081-0.108
		c0.22-0.29,0.451-0.568,0.697-0.836c0.014-0.016,0.028-0.031,0.043-0.047c0.433-0.468,0.904-0.899,1.41-1.289
		c0.296-0.229,0.604-0.443,0.922-0.643c0.003-0.002,0.006-0.004,0.009-0.006c0.318-0.198,0.645-0.381,0.982-0.548
		c0.001,0,0.002-0.001,0.003-0.001c1.214-0.601,2.545-1.003,3.956-1.141c0.368-0.037,0.742-0.057,1.121-0.057
		s0.753,0.02,1.122,0.057c1.412,0.138,2.742,0.54,3.957,1.141c0,0.001,0.001,0.001,0.001,0.001c0.338,0.167,0.665,0.35,0.982,0.548
		c0.004,0.002,0.007,0.004,0.01,0.006c0.319,0.199,0.626,0.413,0.922,0.643h0.001c0.197,0.152,0.389,0.311,0.576,0.476h0.001
		c0.529,0.467,1.016,0.98,1.452,1.537c0.004,0.005,0.008,0.01,0.011,0.015c0.214,0.273,0.417,0.556,0.605,0.849
		c0.005,0.009,0.01,0.018,0.016,0.026c0.321,0.501,0.607,1.026,0.848,1.576v0.001c0.302,0.688,0.538,1.412,0.7,2.163
		c0.004,0.019,0.01,0.035,0.014,0.054c0.071,0.338,0.123,0.681,0.164,1.028c0.006,0.05,0.018,0.099,0.023,0.148
		c0.041,0.395,0.063,0.795,0.063,1.2h-2.036h-7.094c0-0.162-0.017-0.321-0.049-0.475l6.652-3.153
		c-0.099-0.229-0.351-0.757-0.467-0.978l-6.588,3.234c-0.032-0.042-0.068-0.083-0.102-0.124l4.737-5.606
		c-0.186-0.166-0.623-0.525-0.821-0.677l-4.593,5.731c-0.053-0.029-0.104-0.063-0.16-0.087l1.782-7.131
		c-0.239-0.064-0.8-0.189-1.046-0.237l-1.602,7.173c-0.027,0-0.053-0.008-0.081-0.008c-0.027,0-0.052,0.008-0.08,0.008l-1.614-7.169
		c-0.247,0.046-0.739,0.155-0.979,0.221l1.732,7.141c-0.062,0.027-0.119,0.064-0.178,0.098l-4.587-5.733
		c-0.199,0.151-0.605,0.485-0.791,0.651l4.705,5.638c-0.03,0.036-0.062,0.071-0.09,0.11l-6.596-3.222
		c-0.116,0.22-0.368,0.728-0.467,0.957l6.658,3.157c-0.032,0.155-0.05,0.316-0.05,0.48H25.54h-2.036
		C23.504,282.177,23.528,281.768,23.571,281.364"/>
	<path clip-path="url(#SVGID_2_)" d="M203.184,149.666l18.787-4.881v-3.353l10.031-5.682l10.032,5.682v3.353h62.543v-3.353
		l10.031-5.682l10.031,5.682v3.353h23.177l0.718,2.813v2.068V160.5H214.331h-97.375v-10.834H203.184z M307.544,156.035h14.125
		V143.33l-7.062-4.001l-7.063,4.001V156.035z M224.939,156.035h14.125V143.33l-7.063-4.001l-7.062,4.001V156.035z"/>
	<rect x="232.927" y="148.058" clip-path="url(#SVGID_2_)" width="4.033" height="6.484"/>
	<rect x="227.043" y="148.058" clip-path="url(#SVGID_2_)" width="4.033" height="6.484"/>
	<path clip-path="url(#SVGID_2_)" d="M231.077,146.875h-4.033c0-2.421,1.738-4.431,4.033-4.865V146.875z"/>
	<path clip-path="url(#SVGID_2_)" d="M232.927,142.01c2.295,0.434,4.033,2.444,4.033,4.865h-4.033V142.01z"/>
	<rect x="315.532" y="148.058" clip-path="url(#SVGID_2_)" width="4.033" height="6.484"/>
	<rect x="309.648" y="148.058" clip-path="url(#SVGID_2_)" width="4.034" height="6.484"/>
	<path clip-path="url(#SVGID_2_)" d="M313.683,146.875h-4.034c0-2.421,1.738-4.431,4.034-4.865V146.875z"/>
	<path clip-path="url(#SVGID_2_)" d="M315.532,142.01c2.295,0.434,4.033,2.444,4.033,4.865h-4.033V142.01z"/>
	<path clip-path="url(#SVGID_2_)" d="M435.737,6.018c0,2.524-2.047,4.571-4.571,4.571c-2.525,0-4.571-2.047-4.571-4.571
		s2.046-4.571,4.571-4.571C433.69,1.447,435.737,3.494,435.737,6.018"/>
	<path clip-path="url(#SVGID_2_)" d="M359.099,367.715c0,4.691-3.803,8.494-8.494,8.494c-4.692,0-8.495-3.803-8.495-8.494
		s3.803-8.495,8.495-8.495C355.295,359.22,359.099,363.023,359.099,367.715"/>
	<path clip-path="url(#SVGID_2_)" d="M612.993,367.715c0,4.691-3.803,8.494-8.494,8.494s-8.495-3.803-8.495-8.494
		s3.804-8.495,8.495-8.495S612.993,363.023,612.993,367.715"/>
</g>
</svg>
